<?xml version="1.0" encoding="utf-8"?>
<!-- Generator: Adobe Illustrator 21.0.2, SVG Export Plug-In . SVG Version: 6.00 Build 0)  -->
<svg version="1.1" id="Layer_1" xmlns="http://www.w3.org/2000/svg" xmlns:xlink="http://www.w3.org/1999/xlink" x="0px" y="0px"
	 viewBox="0 0 64 64" style="enable-background:new 0 0 64 64;" xml:space="preserve">
<style type="text/css">
	.st0{fill:#2F333B;}
	.st1{fill:none;stroke:#FFFFFF;stroke-linecap:round;stroke-linejoin:round;stroke-miterlimit:10;}
	.st2{fill:#FFFFFF;}
</style>
<g>
	<circle class="st0" cx="-42" cy="-44" r="32"/>
</g>
<g>
	<circle class="st0" cx="32" cy="-44" r="32"/>
</g>
<g>
	<circle class="st0" cx="-42" cy="-116" r="32"/>
</g>
<g>
	<circle class="st0" cx="32" cy="-116" r="32"/>
</g>
<g>
	<circle class="st0" cx="-116" cy="-116" r="32"/>
</g>
<g>
	<circle class="st0" cx="-116" cy="-44" r="32"/>
</g>
<g>
	<path class="st1" d="M56-107.8c0,5.3-4.8,9.9-12.1,12.6H20.1C12.8-97.9,8-102.5,8-107.8v-14.5h48V-107.8z"/>
	<rect x="8" y="-121.9" class="st1" width="48" height="7.3"/>
</g>
<g>
	<circle class="st0" cx="-116" cy="33" r="32"/>
</g>
<g>
	<circle class="st0" cx="-116" cy="107" r="32"/>
</g>
<g>
	<path class="st1" d="M-116,111.6c-13.8,0-24,4.5-24,4.5s6.5,3.5,24,3.5c17.5,0,24-3.5,24-3.5S-102.2,111.6-116,111.6"/>
	<g>
		<line class="st1" x1="-116" y1="113.3" x2="-116" y2="107.3"/>
		<rect x="-116.4" y="95.7" class="st1" width="0.7" height="11.6"/>
		<circle class="st1" cx="-116" cy="95.1" r="0.7"/>
	</g>
	<g>
		<line class="st1" x1="-109.5" y1="113.9" x2="-107.9" y2="108.1"/>
		
			<rect x="-112.2" y="102.2" transform="matrix(0.2589 -0.9659 0.9659 0.2589 -177.8967 -26.7891)" class="st1" width="11.6" height="0.7"/>
		
			<ellipse transform="matrix(0.2588 -0.9659 0.9659 0.2588 -170.6626 -29.7837)" class="st1" cx="-104.7" cy="96.3" rx="0.7" ry="0.7"/>
	</g>
	<g>
		<line class="st1" x1="-102.6" y1="115" x2="-99.6" y2="109.8"/>
		<rect x="-102.5" y="104.4" transform="matrix(0.5 -0.866 0.866 0.5 -139.1416 -31.3676)" class="st1" width="11.6" height="0.7"/>
		
			<ellipse transform="matrix(0.4999 -0.8661 0.8661 0.4999 -132.7083 -31.3646)" class="st1" cx="-93.5" cy="99.2" rx="0.7" ry="0.7"/>
	</g>
	<g>
		<line class="st1" x1="-122.5" y1="113.9" x2="-124.1" y2="108.1"/>
		
			<rect x="-126" y="96.7" transform="matrix(0.9659 -0.2588 0.2588 0.9659 -30.8156 -29.0111)" class="st1" width="0.7" height="11.6"/>
		
			<ellipse transform="matrix(0.9659 -0.2588 0.2588 0.9659 -29.2592 -29.6529)" class="st1" cx="-127.3" cy="96.3" rx="0.7" ry="0.7"/>
	</g>
	<g>
		<line class="st1" x1="-129.4" y1="115" x2="-132.4" y2="109.8"/>
		<rect x="-135.6" y="99" transform="matrix(0.866 -0.5 0.5 0.866 -70.5252 -53.5884)" class="st1" width="0.7" height="11.6"/>
		
			<ellipse transform="matrix(0.8661 -0.4999 0.4999 0.8661 -68.1585 -55.9431)" class="st1" cx="-138.5" cy="99.2" rx="0.7" ry="0.7"/>
	</g>
</g>
<g>
	<g>
		<rect x="-121" y="-68" class="st1" width="10.1" height="4.6"/>
		<path class="st1" d="M-111.8-61.7c4.2,0,6.9,2.7,6.9,6.1V-20h-22.3v-35.6c0-3.4,2.7-6.1,6.9-6.1v-1.7h8.4V-61.7z"/>
		<line class="st1" x1="-127.1" y1="-49.8" x2="-104.9" y2="-49.8"/>
	</g>
	<rect x="-124.1" y="-45.6" class="st1" width="16.2" height="21.1"/>
</g>
<g>
	<circle class="st0" cx="-42" cy="32" r="32"/>
</g>
<g>
	<g>
		<rect x="-47" y="-140" class="st1" width="10.1" height="4.6"/>
		<path class="st1" d="M-37.8-133.7c4.2,0,6.9,2.7,6.9,6.1V-92h-22.3v-35.6c0-3.4,2.7-6.1,6.9-6.1v-1.7h8.4V-133.7z"/>
		<line class="st1" x1="-53.1" y1="-121.8" x2="-30.9" y2="-121.8"/>
		<g>
			<path class="st2" d="M-51.5-117h9.8c0.8,0,1.6,0.2,2.5,0.6s1.6,0.8,2.1,1.3c0.9,0.9,1.4,2.1,1.4,3.5c0,1.3-0.4,2.4-1.2,3.2
				s-2.2,1.4-4.1,1.9l3.5,4.3l1.2-1.3c0.1-0.1,0.2-0.3,0.2-0.4c0-0.4-0.3-0.6-0.9-0.8l0-0.4l4,0v0.4c-0.8,0.1-1.2,0.3-1.4,0.5
				l-2.3,2.8l2.8,3.4c0.3,0.3,0.7,0.5,1.4,0.5l0,0.5h-4l-1.9-2.3l-1,1.2c-0.1,0.1-0.1,0.2-0.1,0.3c0,0.2,0.2,0.3,0.7,0.3h0.4v0.5
				l-3.5,0v-0.5c0.5-0.1,0.9-0.3,1.1-0.6l1.7-2l-5-6.1l-1.6-0.1l0,7c0,0.5,0.2,1,0.6,1.3s0.9,0.5,1.6,0.5h0.5v0.5h-8.3l0-0.5h0.5
				c0.6,0,1.1-0.1,1.5-0.4s0.6-0.7,0.6-1.1l0-15.4c0-0.6-0.2-1.2-0.5-1.5s-0.8-0.6-1.5-0.6l-0.5,0L-51.5-117z M-45.8-107.3l1,0
				c1.9,0,3.4-0.4,4.4-1.2s1.6-1.9,1.6-3.4c0-2.6-1.8-3.8-5.3-3.8c-1.2,0-1.8,0.4-1.8,1.1L-45.8-107.3z"/>
		</g>
	</g>
</g>
<g>
	<circle class="st0" cx="32" cy="32" r="32"/>
</g>
<g>
	<g>
		<g>
			<path class="st1" d="M-101.1-114.3c1.3-0.4,2.9,0.4,2.9,2.9c0,2.7-2.2,5.3-4.4,5.5"/>
			<path class="st1" d="M-116-92c-5,0-15.1-8.2-15.1-25.1c0-14.2,4.5-18.4,15.1-18.4c10.6,0,15.1,4.3,15.1,18.4
				C-100.9-100.2-111-92-116-92z"/>
			<path class="st1" d="M-130.9-114.3c-1.3-0.4-2.9,0.4-2.9,2.9c0,2.7,2.2,5.3,4.4,5.5"/>
		</g>
		<path class="st1" d="M-130.3-109.5c-0.8-17.1,18.2-10.8,24.8-15.1c-0.9,6.1,0.9,13.7,3.6,16.4"/>
		<path class="st1" d="M-122.7-134.7c-0.1-0.3-0.1-0.6-0.1-0.9c0-2.4,3.1-4.4,6.9-4.4c3.8,0,6.9,2,6.9,4.4c0,0.3,0,0.6-0.1,0.9"/>
	</g>
	<path class="st1" d="M-116-94.2c-2.9,0-9.8-4.8-12.1-15.5c-0.3-8.7,5-9.8,13.8-10.6c2.2-0.2,4.4-0.4,6.3-0.9
		c0,5.1,1.4,10.5,3.6,13.6C-107.1-98.4-113.3-94.2-116-94.2z"/>
	<circle class="st1" cx="-121.7" cy="-111.3" r="3.2"/>
	<path class="st1" d="M-119.5-111.3c-1.2,1.2-3.2,1.2-4.5,0"/>
	<path class="st1" d="M-108-111.3c-1.2,1.2-3.2,1.2-4.5,0"/>
	<path class="st1" d="M-112.9-102c-1.2,1.2-5,1.2-6.2,0"/>
	<circle class="st1" cx="-110.3" cy="-111.3" r="3.2"/>
	<path class="st1" d="M-118.3-99.6c-1.1,0-1.9-0.9-1.9-1.9c0-1.1,0.9-1.9,1.9-1.9h4.7c1.1,0,1.9,0.9,1.9,1.9c0,1.1-0.9,1.9-1.9,1.9
		H-118.3z"/>
</g>
<g>
	<path class="st1" d="M-104.8,27.6c0,7.9-5,12.6-11.2,12.6c-6.2,0-11.2-4.7-11.2-12.6c0-7.9,11.2-19.4,11.2-19.4
		S-104.8,19.7-104.8,27.6z"/>
	<path class="st1" d="M-123.9,27.6c0,5.6,3.2,9.3,7.9,9.3"/>
	<path class="st1" d="M-107.3,36c3.7,1.1,6,2.9,6,4.9c0,3.4-6.6,6.1-14.7,6.1c-8.1,0-14.7-2.7-14.7-6.1c0-2,2.4-3.8,6-4.9"/>
	<path class="st1" d="M-105.4,32.1C-97.5,34-92,37.9-92,42.4c0,6.3-10.7,11.4-24,11.4c-13.3,0-24-5.1-24-11.4
		c0-4.5,5.5-8.4,13.4-10.3"/>
</g>
<g>
	<g>
		<rect x="8" y="-62" class="st1" width="48" height="7.3"/>
	</g>
	<g>
		<g>
			<path class="st1" d="M7.5-29.5c0,3.3,2.7,6,6,6h37c3.3,0,6-2.7,6-6v-19c0-3.3-2.7-6-6-6h-37c-3.3,0-6,2.7-6,6V-29.5z"/>
		</g>
	</g>
</g>
<g>
	<g>
		<g>
			<g>
				<path class="st1" d="M-27.9-37c1.2-0.4,2.7,0.4,2.7,2.7c0,2.5-2.1,5-4.1,5.1"/>
				<path class="st1" d="M-42-16c-4.7,0-14.2-7.7-14.2-23.7C-56.2-53-52-57-42-57c10,0,14.2,4,14.2,17.4C-27.8-23.7-37.3-16-42-16z"
					/>
				<path class="st1" d="M-56.1-37c-1.2-0.4-2.7,0.4-2.7,2.7c0,2.5,2.1,5,4.1,5.1"/>
			</g>
			<path class="st1" d="M-55.5-32.4c-0.7-16.1,17.1-10.2,23.3-14.2c-0.8,5.7,0.9,12.9,3.4,15.4"/>
		</g>
		<circle class="st1" cx="-47.4" cy="-34.2" r="3"/>
		<path class="st1" d="M-39.1-25.4c-1.2,1.2-4.7,1.2-5.9,0"/>
		<circle class="st1" cx="-36.6" cy="-34.2" r="3"/>
		<circle class="st1" cx="-36.6" cy="-34.2" r="0.5"/>
		<circle class="st1" cx="-47.4" cy="-34.2" r="0.5"/>
	</g>
	<path class="st1" d="M-26.9-58.5c-0.9,1.7-2.4,3.4-1.2,6.2c1.5,3.5,1.6,5,1.8,6.1c0.2,1.1,0.3,1.7,0.8,1.8c0.5,0.1,1.2-0.8,1-2.2
		c-0.2-1-0.6-3.6-0.3-3.7c0.3-0.1,1.3,0.6,1.7,2.7c0.3,1.5,0.2,2.6,0,4c-0.3,1.7-1.8,4.4-0.5,5c0.5,0.2,1.9-3.5,2.4-4.7
		c0.6-1.4,1.2-5,0.8-6.3c-0.6-2.1-2.6-5.1-2.3-7.1c0.4-1.9,0.9-2.5,1.2-3c0.7-1.1,0.2-2.8-3.2-4.4C-24.6-64-26.3-59.5-26.9-58.5z"/>
	<path class="st1" d="M-60.4-38.6c1.3-0.6-0.2-3.3-0.5-5c-0.2-1.4-0.3-2.5,0-4c0.4-2.1,1.4-2.8,1.7-2.7c0.3,0.1-0.2,2.7-0.3,3.7
		c-0.2,1.4,0.5,2.2,1,2.2c0.5-0.1,0.6-0.7,0.8-1.8c0.2-1.1,0.3-2.5,1.8-6.1c1.2-2.8-0.3-4.5-1.2-6.2c-0.5-1-2.2-5.5-2.2-5.5
		c-3.4,1.6-3.9,3.3-3.2,4.4c0.3,0.5,0.8,1,1.2,3c0.4,1.9-1.7,5-2.3,7.1c-0.4,1.3,0.3,4.9,0.8,6.3C-62.4-42-60.9-38.3-60.4-38.6z"/>
</g>
<g>
	<g>
		<circle class="st1" cx="-39.1" cy="21.6" r="0.9"/>
		<circle class="st1" cx="-45.5" cy="22.6" r="0.9"/>
		<circle class="st1" cx="-24.8" cy="23.3" r="0.9"/>
		<circle class="st1" cx="-28.7" cy="21.6" r="0.9"/>
		<circle class="st1" cx="-49.7" cy="23.3" r="0.9"/>
		<circle class="st1" cx="-31.6" cy="23.4" r="0.9"/>
		<circle class="st1" cx="-35.7" cy="22.6" r="0.9"/>
		<circle class="st1" cx="-41.9" cy="23.3" r="0.9"/>
		<circle class="st1" cx="-21.1" cy="22.6" r="0.9"/>
	</g>
	<path class="st1" d="M-28,55.6h-28c-5.5,0-10-24.5-10-30h48C-18,31.1-22.5,55.6-28,55.6z"/>
	<g>
		<rect x="-65" y="18.6" class="st1" width="2" height="7"/>
		<g>
			<rect x="-65" y="16.4" class="st1" width="5.6" height="2.1"/>
			<polygon class="st1" points="-59.4,16.4 -55.3,17.9 -55.3,19.3 -59.4,18.6 			"/>
			<path class="st1" d="M-55.3,23.7c-0.6,0-1-0.5-1-1.1c0-0.9,1-1.8,1-1.8s1,0.8,1,1.8C-54.3,23.2-54.7,23.7-55.3,23.7z"/>
		</g>
	</g>
</g>
<g>
	<g>
		<g>
			<rect x="27.2" y="14.2" class="st1" width="8.8" height="4"/>
			<path class="st1" d="M35.3,19.7c3.7,0,6,2.4,6,5.3v31H21.9V25c0-2.9,2.4-5.3,6-5.3v-1.4h7.4V19.7z"/>
			<line class="st1" x1="21.9" y1="30" x2="41.3" y2="30"/>
			<g>
				<rect x="26.8" y="8" class="st1" width="9.7" height="2.1"/>
				<polygon class="st1" points="36.5,8 40.7,9.4 40.7,10.9 36.5,10.1 				"/>
				<rect x="30.1" y="10.1" class="st1" width="1.6" height="4"/>
				<path class="st1" d="M40.7,16.9c-0.8,0-1.4-0.7-1.4-1.5c0-1.3,1.4-2.5,1.4-2.5s1.4,1.2,1.4,2.5C42.1,16.2,41.5,16.9,40.7,16.9z"
					/>
			</g>
		</g>
	</g>
	<g>
		<path class="st1" d="M31.6,36.6c-0.9-0.4-2,0.1-2.3,1c-0.4,0.9,0.1,2,1,2.3c-0.4,0.9,0.1,2,1,2.3c0.9,0.4,2-0.1,2.3-1
			c0.9,0.4,2-0.1,2.3-1c0.4-0.9-0.1-2-1-2.3c0.4-0.9-0.1-2-1-2.3C33,35.2,32,35.7,31.6,36.6z M33.8,39.4c-0.3,0.7-1,1-1.7,0.7
			c-0.7-0.3-1-1-0.7-1.7c0.3-0.7,1-1,1.7-0.7C33.8,38,34.1,38.7,33.8,39.4z"/>
		<path class="st1" d="M34.9,44.5c-0.9-0.4-2,0.1-2.3,1c-0.4,0.9,0.1,2,1,2.3c-0.4,0.9,0.1,2,1,2.3c0.9,0.4,2-0.1,2.3-1
			c0.9,0.4,2-0.1,2.3-1c0.4-0.9-0.1-2-1-2.3c0.4-0.9-0.1-2-1-2.3C36.3,43.1,35.2,43.5,34.9,44.5z M37.1,47.2c-0.3,0.7-1,1-1.7,0.7
			c-0.7-0.3-1-1-0.7-1.7c0.3-0.7,1-1,1.7-0.7C37,45.9,37.4,46.6,37.1,47.2z"/>
	</g>
	<rect x="27.2" y="33.7" class="st1" width="14.1" height="18.4"/>
</g>
</svg>
