<?xml version="1.0" encoding="utf-8"?>
<!-- Generator: Adobe Illustrator 21.0.2, SVG Export Plug-In . SVG Version: 6.00 Build 0)  -->
<svg version="1.1" id="Layer_1" xmlns="http://www.w3.org/2000/svg" xmlns:xlink="http://www.w3.org/1999/xlink" x="0px" y="0px"
	 viewBox="0 0 64 64" style="enable-background:new 0 0 64 64;" xml:space="preserve">
<style type="text/css">
	.st0{fill:#2F333B;}
	.st1{fill:none;stroke:#FFFFFF;stroke-linecap:round;stroke-linejoin:round;stroke-miterlimit:10;}
	.st2{fill:#FFFFFF;}
</style>
<g>
	<circle class="st0" cx="32" cy="-44" r="32"/>
</g>
<g>
	<circle class="st0" cx="106" cy="-44" r="32"/>
</g>
<g>
	<circle class="st0" cx="32" cy="-116" r="32"/>
</g>
<g>
	<circle class="st0" cx="106" cy="-116" r="32"/>
</g>
<g>
	<circle class="st0" cx="-42" cy="-116" r="32"/>
</g>
<g>
	<circle class="st0" cx="-42" cy="-44" r="32"/>
</g>
<g>
	<path class="st1" d="M130-107.8c0,5.3-4.8,9.9-12.1,12.6H94.1c-7.3-2.7-12.1-7.3-12.1-12.6v-14.5h48V-107.8z"/>
	<rect x="82" y="-121.9" class="st1" width="48" height="7.3"/>
</g>
<g>
	<path class="st1" d="M152,27.6c-13.8,0-24,4.5-24,4.5s6.5,3.5,24,3.5c17.5,0,24-3.5,24-3.5S165.8,27.6,152,27.6"/>
	<g>
		<line class="st1" x1="152" y1="29.3" x2="152" y2="23.3"/>
		<rect x="151.6" y="11.7" class="st1" width="0.7" height="11.6"/>
		<circle class="st1" cx="152" cy="11.1" r="0.7"/>
	</g>
	<g>
		<line class="st1" x1="158.5" y1="29.9" x2="160.1" y2="24.1"/>
		
			<rect x="155.8" y="18.2" transform="matrix(0.2589 -0.9659 0.9659 0.2589 101.8568 169.8207)" class="st1" width="11.6" height="0.7"/>
		
			<ellipse transform="matrix(0.2588 -0.9659 0.9659 0.2588 109.1214 166.8249)" class="st1" cx="163.3" cy="12.3" rx="0.7" ry="0.7"/>
	</g>
	<g>
		<line class="st1" x1="165.4" y1="31" x2="168.4" y2="25.8"/>
		<rect x="165.5" y="20.4" transform="matrix(0.5 -0.866 0.866 0.5 67.6105 158.7285)" class="st1" width="11.6" height="0.7"/>
		
			<ellipse transform="matrix(0.4999 -0.8661 0.8661 0.4999 74.0654 158.7364)" class="st1" cx="174.5" cy="15.2" rx="0.7" ry="0.7"/>
	</g>
	<g>
		<line class="st1" x1="145.5" y1="29.9" x2="143.9" y2="24.1"/>
		
			<rect x="142" y="12.7" transform="matrix(0.9659 -0.2588 0.2588 0.9659 5.514173e-02 37.4871)" class="st1" width="0.7" height="11.6"/>
		<ellipse transform="matrix(0.9659 -0.2588 0.2588 0.9659 1.6087 36.8409)" class="st1" cx="140.7" cy="12.3" rx="0.7" ry="0.7"/>
	</g>
	<g>
		<line class="st1" x1="138.6" y1="31" x2="135.6" y2="25.8"/>
		<rect x="132.4" y="15" transform="matrix(0.866 -0.5 0.5 0.866 7.3755 69.1536)" class="st1" width="0.7" height="11.6"/>
		<ellipse transform="matrix(0.8661 -0.4999 0.4999 0.8661 9.7312 66.7888)" class="st1" cx="129.5" cy="15.2" rx="0.7" ry="0.7"/>
	</g>
</g>
<g>
	<circle class="st0" cx="-42" cy="33" r="32"/>
</g>
<g>
	<path class="st1" d="M144,38.6c-13.8,0-24,4.5-24,4.5s6.5,3.5,24,3.5c17.5,0,24-3.5,24-3.5S157.8,38.6,144,38.6"/>
	<g>
		<line class="st1" x1="144" y1="40.3" x2="144" y2="34.3"/>
		<rect x="143.6" y="22.7" class="st1" width="0.7" height="11.6"/>
		<circle class="st1" cx="144" cy="22.1" r="0.7"/>
	</g>
	<g>
		<line class="st1" x1="150.5" y1="40.9" x2="152.1" y2="35.1"/>
		
			<rect x="147.8" y="29.2" transform="matrix(0.2589 -0.9659 0.9659 0.2589 85.3029 170.2457)" class="st1" width="11.6" height="0.7"/>
		
			<ellipse transform="matrix(0.2588 -0.9659 0.9659 0.2588 92.5664 167.2507)" class="st1" cx="155.3" cy="23.3" rx="0.7" ry="0.7"/>
	</g>
	<g>
		<line class="st1" x1="157.4" y1="42" x2="160.4" y2="36.8"/>
		<rect x="157.5" y="31.4" transform="matrix(0.5 -0.866 0.866 0.5 54.0839 157.3005)" class="st1" width="11.6" height="0.7"/>
		
			<ellipse transform="matrix(0.4999 -0.8661 0.8661 0.4999 60.5379 157.3087)" class="st1" cx="166.5" cy="26.2" rx="0.7" ry="0.7"/>
	</g>
	<g>
		<line class="st1" x1="137.5" y1="40.9" x2="135.9" y2="35.1"/>
		
			<rect x="134" y="23.7" transform="matrix(0.9659 -0.2588 0.2588 0.9659 -3.0643 35.7914)" class="st1" width="0.7" height="11.6"/>
		<ellipse transform="matrix(0.9659 -0.2588 0.2588 0.9659 -1.5105 35.1453)" class="st1" cx="132.7" cy="23.3" rx="0.7" ry="0.7"/>
	</g>
	<g>
		<line class="st1" x1="130.6" y1="42" x2="127.6" y2="36.8"/>
		<rect x="124.4" y="26" transform="matrix(0.866 -0.5 0.5 0.866 0.804 66.6274)" class="st1" width="0.7" height="11.6"/>
		<ellipse transform="matrix(0.8661 -0.4999 0.4999 0.8661 3.1604 64.2626)" class="st1" cx="121.5" cy="26.2" rx="0.7" ry="0.7"/>
	</g>
</g>
<g>
	<circle class="st0" cx="-42" cy="107" r="32"/>
</g>
<g>
	<path class="st1" d="M-42,111.6c-13.8,0-24,4.5-24,4.5s6.5,3.5,24,3.5c17.5,0,24-3.5,24-3.5S-28.2,111.6-42,111.6"/>
	<g>
		<line class="st1" x1="-42" y1="113.3" x2="-42" y2="107.3"/>
		<rect x="-42.4" y="95.7" class="st1" width="0.7" height="11.6"/>
		<circle class="st1" cx="-42" cy="95.1" r="0.7"/>
	</g>
	<g>
		<line class="st1" x1="-35.5" y1="113.9" x2="-33.9" y2="108.1"/>
		
			<rect x="-38.2" y="102.2" transform="matrix(0.2589 -0.9659 0.9659 0.2589 -123.0546 44.688)" class="st1" width="11.6" height="0.7"/>
		
			<ellipse transform="matrix(0.2588 -0.9659 0.9659 0.2588 -115.8127 41.6955)" class="st1" cx="-30.7" cy="96.3" rx="0.7" ry="0.7"/>
	</g>
	<g>
		<line class="st1" x1="-28.6" y1="115" x2="-25.6" y2="109.8"/>
		<rect x="-28.5" y="104.4" transform="matrix(0.5 -0.866 0.866 0.5 -102.1402 32.7191)" class="st1" width="11.6" height="0.7"/>
		<ellipse transform="matrix(0.4999 -0.8661 0.8661 0.4999 -95.7018 32.725)" class="st1" cx="-19.5" cy="99.2" rx="0.7" ry="0.7"/>
	</g>
	<g>
		<line class="st1" x1="-48.5" y1="113.9" x2="-50.1" y2="108.1"/>
		
			<rect x="-52" y="96.7" transform="matrix(0.9659 -0.2588 0.2588 0.9659 -28.2943 -9.8594)" class="st1" width="0.7" height="11.6"/>
		
			<ellipse transform="matrix(0.9659 -0.2588 0.2588 0.9659 -26.7384 -10.5026)" class="st1" cx="-53.3" cy="96.3" rx="0.7" ry="0.7"/>
	</g>
	<g>
		<line class="st1" x1="-55.4" y1="115" x2="-58.4" y2="109.8"/>
		<rect x="-61.6" y="99" transform="matrix(0.866 -0.5 0.5 0.866 -60.6119 -16.5898)" class="st1" width="0.7" height="11.6"/>
		
			<ellipse transform="matrix(0.8661 -0.4999 0.4999 0.8661 -58.2472 -18.9479)" class="st1" cx="-64.5" cy="99.2" rx="0.7" ry="0.7"/>
	</g>
</g>
<g>
	<g>
		<rect x="-47" y="-68" class="st1" width="10.1" height="4.6"/>
		<path class="st1" d="M-37.8-61.7c4.2,0,6.9,2.7,6.9,6.1V-20h-22.3v-35.6c0-3.4,2.7-6.1,6.9-6.1v-1.7h8.4V-61.7z"/>
		<line class="st1" x1="-53.1" y1="-49.8" x2="-30.9" y2="-49.8"/>
	</g>
	<rect x="-50.1" y="-45.6" class="st1" width="16.2" height="21.1"/>
</g>
<g>
	<circle class="st0" cx="32" cy="32" r="32"/>
</g>
<g>
	<g>
		<rect x="27" y="-140" class="st1" width="10.1" height="4.6"/>
		<path class="st1" d="M36.2-133.7c4.2,0,6.9,2.7,6.9,6.1V-92H20.9v-35.6c0-3.4,2.7-6.1,6.9-6.1v-1.7h8.4V-133.7z"/>
		<line class="st1" x1="20.9" y1="-121.8" x2="43.1" y2="-121.8"/>
		<g>
			<path class="st2" d="M22.5-117h9.8c0.8,0,1.6,0.2,2.5,0.6s1.6,0.8,2.1,1.3c0.9,0.9,1.4,2.1,1.4,3.5c0,1.3-0.4,2.4-1.2,3.2
				s-2.2,1.4-4.1,1.9l3.5,4.3l1.2-1.3c0.1-0.1,0.2-0.3,0.2-0.4c0-0.4-0.3-0.6-0.9-0.8l0-0.4l4,0v0.4c-0.8,0.1-1.2,0.3-1.4,0.5
				l-2.3,2.8l2.8,3.4c0.3,0.3,0.7,0.5,1.4,0.5l0,0.5h-4l-1.9-2.3l-1,1.2c-0.1,0.1-0.1,0.2-0.1,0.3c0,0.2,0.2,0.3,0.7,0.3h0.4v0.5
				L32-97v-0.5c0.5-0.1,0.9-0.3,1.1-0.6l1.7-2l-5-6.1l-1.6-0.1l0,7c0,0.5,0.2,1,0.6,1.3s0.9,0.5,1.6,0.5h0.5v0.5h-8.3l0-0.5H23
				c0.6,0,1.1-0.1,1.5-0.4s0.6-0.7,0.6-1.1l0-15.4c0-0.6-0.2-1.2-0.5-1.5s-0.8-0.6-1.5-0.6l-0.5,0L22.5-117z M28.2-107.3l1,0
				c1.9,0,3.4-0.4,4.4-1.2s1.6-1.9,1.6-3.4c0-2.6-1.8-3.8-5.3-3.8c-1.2,0-1.8,0.4-1.8,1.1L28.2-107.3z"/>
		</g>
	</g>
</g>
<g>
	<circle class="st0" cx="106" cy="32" r="32"/>
</g>
<g>
	<g>
		<g>
			<path class="st1" d="M-27.1-114.3c1.3-0.4,2.9,0.4,2.9,2.9c0,2.7-2.2,5.3-4.4,5.5"/>
			<path class="st1" d="M-42-92c-5,0-15.1-8.2-15.1-25.1c0-14.2,4.5-18.4,15.1-18.4c10.6,0,15.1,4.3,15.1,18.4
				C-26.9-100.2-37-92-42-92z"/>
			<path class="st1" d="M-56.9-114.3c-1.3-0.4-2.9,0.4-2.9,2.9c0,2.7,2.2,5.3,4.4,5.5"/>
		</g>
		<path class="st1" d="M-56.3-109.5c-0.8-17.1,18.2-10.8,24.8-15.1c-0.9,6.1,0.9,13.7,3.6,16.4"/>
		<path class="st1" d="M-48.7-134.7c-0.1-0.3-0.1-0.6-0.1-0.9c0-2.4,3.1-4.4,6.9-4.4c3.8,0,6.9,2,6.9,4.4c0,0.3,0,0.6-0.1,0.9"/>
	</g>
	<path class="st1" d="M-42-94.2c-2.9,0-9.8-4.8-12.1-15.5c-0.3-8.7,5-9.8,13.8-10.6c2.2-0.2,4.4-0.4,6.3-0.9
		c0,5.1,1.4,10.5,3.6,13.6C-33.1-98.4-39.3-94.2-42-94.2z"/>
	<circle class="st1" cx="-47.7" cy="-111.3" r="3.2"/>
	<path class="st1" d="M-45.5-111.3c-1.2,1.2-3.2,1.2-4.5,0"/>
	<path class="st1" d="M-34-111.3c-1.2,1.2-3.2,1.2-4.5,0"/>
	<path class="st1" d="M-38.9-102c-1.2,1.2-5,1.2-6.2,0"/>
	<circle class="st1" cx="-36.3" cy="-111.3" r="3.2"/>
	<path class="st1" d="M-44.3-99.6c-1.1,0-1.9-0.9-1.9-1.9c0-1.1,0.9-1.9,1.9-1.9h4.7c1.1,0,1.9,0.9,1.9,1.9c0,1.1-0.9,1.9-1.9,1.9
		H-44.3z"/>
</g>
<g>
	<path class="st1" d="M-30.8,27.6c0,7.9-5,12.6-11.2,12.6c-6.2,0-11.2-4.7-11.2-12.6C-53.2,19.7-42,8.2-42,8.2S-30.8,19.7-30.8,27.6
		z"/>
	<path class="st1" d="M-49.9,27.6c0,5.6,3.2,9.3,7.9,9.3"/>
	<path class="st1" d="M-33.3,36c3.7,1.1,6,2.9,6,4.9c0,3.4-6.6,6.1-14.7,6.1c-8.1,0-14.7-2.7-14.7-6.1c0-2,2.4-3.8,6-4.9"/>
	<path class="st1" d="M-31.4,32.1C-23.5,34-18,37.9-18,42.4c0,6.3-10.7,11.4-24,11.4c-13.3,0-24-5.1-24-11.4
		c0-4.5,5.5-8.4,13.4-10.3"/>
</g>
<g>
	<g>
		<rect x="82" y="-62" class="st1" width="48" height="7.3"/>
	</g>
	<g>
		<g>
			<path class="st1" d="M81.5-29.5c0,3.3,2.7,6,6,6h37c3.3,0,6-2.7,6-6v-19c0-3.3-2.7-6-6-6h-37c-3.3,0-6,2.7-6,6V-29.5z"/>
		</g>
	</g>
</g>
<g>
	<g>
		<rect x="86.7" y="25.2" class="st1" width="8.8" height="4"/>
		<path class="st1" d="M94.7,30.7c3.7,0,6,2.4,6,5.3v31H81.3V36c0-2.9,2.4-5.3,6-5.3v-1.4h7.4V30.7z"/>
		<line class="st1" x1="81.3" y1="41" x2="100.8" y2="41"/>
		<g>
			<rect x="86.2" y="19" class="st1" width="18.3" height="2.1"/>
			<polygon class="st1" points="104.6,19 108.7,20.4 108.7,21.9 104.6,21.1 			"/>
			<rect x="89.6" y="21.1" class="st1" width="1.6" height="4"/>
			<path class="st1" d="M108.7,28.6c-1.1,0-1.9-0.9-1.9-2c0-1.8,1.9-3.4,1.9-3.4s1.9,1.6,1.9,3.4C110.7,27.7,109.8,28.6,108.7,28.6z
				"/>
		</g>
	</g>
	<rect x="86.7" y="44.7" class="st1" width="14.1" height="18.4"/>
</g>
<g>
	<g>
		<g>
			<g>
				<path class="st1" d="M46.1-37c1.2-0.4,2.7,0.4,2.7,2.7c0,2.5-2.1,5-4.1,5.1"/>
				<path class="st1" d="M32-16c-4.7,0-14.2-7.7-14.2-23.7C17.8-53,22-57,32-57c10,0,14.2,4,14.2,17.4C46.2-23.7,36.7-16,32-16z"/>
				<path class="st1" d="M17.9-37c-1.2-0.4-2.7,0.4-2.7,2.7c0,2.5,2.1,5,4.1,5.1"/>
			</g>
			<path class="st1" d="M18.5-32.4c-0.7-16.1,17.1-10.2,23.3-14.2c-0.8,5.7,0.9,12.9,3.4,15.4"/>
		</g>
		<circle class="st1" cx="26.6" cy="-34.2" r="3"/>
		<path class="st1" d="M34.9-25.4c-1.2,1.2-4.7,1.2-5.9,0"/>
		<circle class="st1" cx="37.4" cy="-34.2" r="3"/>
		<circle class="st1" cx="37.4" cy="-34.2" r="0.5"/>
		<circle class="st1" cx="26.6" cy="-34.2" r="0.5"/>
	</g>
	<path class="st1" d="M47.1-58.5c-0.9,1.7-2.4,3.4-1.2,6.2c1.5,3.5,1.6,5,1.8,6.1c0.2,1.1,0.3,1.7,0.8,1.8c0.5,0.1,1.2-0.8,1-2.2
		c-0.2-1-0.6-3.6-0.3-3.7c0.3-0.1,1.3,0.6,1.7,2.7c0.3,1.5,0.2,2.6,0,4c-0.3,1.7-1.8,4.4-0.5,5c0.5,0.2,1.9-3.5,2.4-4.7
		c0.6-1.4,1.2-5,0.8-6.3c-0.6-2.1-2.6-5.1-2.3-7.1c0.4-1.9,0.9-2.5,1.2-3c0.7-1.1,0.2-2.8-3.2-4.4C49.4-64,47.7-59.5,47.1-58.5z"/>
	<path class="st1" d="M13.6-38.6c1.3-0.6-0.2-3.3-0.5-5c-0.2-1.4-0.3-2.5,0-4c0.4-2.1,1.4-2.8,1.7-2.7c0.3,0.1-0.2,2.7-0.3,3.7
		c-0.2,1.4,0.5,2.2,1,2.2c0.5-0.1,0.6-0.7,0.8-1.8c0.2-1.1,0.3-2.5,1.8-6.1c1.2-2.8-0.3-4.5-1.2-6.2c-0.5-1-2.2-5.5-2.2-5.5
		c-3.4,1.6-3.9,3.3-3.2,4.4c0.3,0.5,0.8,1,1.2,3c0.4,1.9-1.7,5-2.3,7.1c-0.4,1.3,0.3,4.9,0.8,6.3C11.6-42,13.1-38.3,13.6-38.6z"/>
</g>
<g>
	<g>
		<circle class="st1" cx="34.9" cy="21.6" r="0.9"/>
		<circle class="st1" cx="28.5" cy="22.6" r="0.9"/>
		<circle class="st1" cx="49.2" cy="23.3" r="0.9"/>
		<circle class="st1" cx="45.3" cy="21.6" r="0.9"/>
		<circle class="st1" cx="24.3" cy="23.3" r="0.9"/>
		<circle class="st1" cx="42.4" cy="23.4" r="0.9"/>
		<circle class="st1" cx="38.3" cy="22.6" r="0.9"/>
		<circle class="st1" cx="32.1" cy="23.3" r="0.9"/>
		<circle class="st1" cx="52.9" cy="22.6" r="0.9"/>
	</g>
	<path class="st1" d="M46,55.6H18c-5.5,0-10-24.5-10-30h48C56,31.1,51.5,55.6,46,55.6z"/>
	<g>
		<rect x="9" y="18.6" class="st1" width="2" height="7"/>
		<g>
			<rect x="9" y="16.4" class="st1" width="5.6" height="2.1"/>
			<polygon class="st1" points="14.6,16.4 18.7,17.9 18.7,19.3 14.6,18.6 			"/>
			<path class="st1" d="M18.7,23.7c-0.6,0-1-0.5-1-1.1c0-0.9,1-1.8,1-1.8s1,0.8,1,1.8C19.7,23.2,19.3,23.7,18.7,23.7z"/>
		</g>
	</g>
</g>
</svg>
