<?xml version="1.0" encoding="utf-8"?>
<!-- Generator: Adobe Illustrator 21.0.2, SVG Export Plug-In . SVG Version: 6.00 Build 0)  -->
<svg version="1.1" id="Layer_1" xmlns="http://www.w3.org/2000/svg" xmlns:xlink="http://www.w3.org/1999/xlink" x="0px" y="0px"
	 viewBox="0 0 64 64" style="enable-background:new 0 0 64 64;" xml:space="preserve">
<style type="text/css">
	.st0{fill:#2F333B;}
	.st1{fill:none;stroke:#FFFFFF;stroke-linecap:round;stroke-linejoin:round;stroke-miterlimit:10;}
	.st2{fill:#FFFFFF;}
</style>
<g>
	<circle class="st0" cx="32" cy="32" r="32"/>
</g>
<g>
	<g>
		<rect x="27" y="8" class="st1" width="10.1" height="4.6"/>
		<path class="st1" d="M36.2,14.3c4.2,0,6.9,2.7,6.9,6.1V56H20.9V20.4c0-3.4,2.7-6.1,6.9-6.1v-1.7h8.4V14.3z"/>
		<line class="st1" x1="20.9" y1="26.2" x2="43.1" y2="26.2"/>
		<g>
			<path class="st2" d="M22.5,31h9.8c0.8,0,1.6,0.2,2.5,0.6s1.6,0.8,2.1,1.3c0.9,0.9,1.4,2.1,1.4,3.5c0,1.3-0.4,2.4-1.2,3.2
				S34.9,41,33,41.4l3.5,4.3l1.2-1.3c0.1-0.1,0.2-0.3,0.2-0.4c0-0.4-0.3-0.6-0.9-0.8l0-0.4l4,0v0.4c-0.8,0.1-1.2,0.3-1.4,0.5
				l-2.3,2.8l2.8,3.4c0.3,0.3,0.7,0.5,1.4,0.5l0,0.5h-4l-1.9-2.3l-1,1.2c-0.1,0.1-0.1,0.2-0.1,0.3c0,0.2,0.2,0.3,0.7,0.3h0.4V51
				L32,51v-0.5c0.5-0.1,0.9-0.3,1.1-0.6l1.7-2l-5-6.1l-1.6-0.1l0,7c0,0.5,0.2,1,0.6,1.3s0.9,0.5,1.6,0.5h0.5V51h-8.3l0-0.5H23
				c0.6,0,1.1-0.1,1.5-0.4s0.6-0.7,0.6-1.1l0-15.4c0-0.6-0.2-1.2-0.5-1.5s-0.8-0.6-1.5-0.6l-0.5,0L22.5,31z M28.2,40.7l1,0
				c1.9,0,3.4-0.4,4.4-1.2s1.6-1.9,1.6-3.4c0-2.6-1.8-3.8-5.3-3.8c-1.2,0-1.8,0.4-1.8,1.1L28.2,40.7z"/>
		</g>
	</g>
</g>
</svg>
