<?xml version="1.0" encoding="utf-8"?>
<!-- Generator: Adobe Illustrator 21.0.2, SVG Export Plug-In . SVG Version: 6.00 Build 0)  -->
<svg version="1.1" id="Layer_1" xmlns="http://www.w3.org/2000/svg" xmlns:xlink="http://www.w3.org/1999/xlink" x="0px" y="0px"
	 viewBox="0 0 64 64" style="enable-background:new 0 0 64 64;" xml:space="preserve">
<style type="text/css">
	.st0{fill:#2F333B;}
	.st1{fill:none;stroke:#FFFFFF;stroke-linecap:round;stroke-linejoin:round;stroke-miterlimit:10;}
</style>
<g>
	<circle class="st0" cx="32" cy="32" r="32"/>
</g>
<g>
	<path class="st1" d="M32,36.6c-13.8,0-24,4.5-24,4.5s6.5,3.5,24,3.5c17.5,0,24-3.5,24-3.5S45.8,36.6,32,36.6"/>
	<g>
		<line class="st1" x1="32" y1="38.3" x2="32" y2="32.3"/>
		<rect x="31.6" y="20.7" class="st1" width="0.7" height="11.6"/>
		<circle class="st1" cx="32" cy="20.1" r="0.7"/>
	</g>
	<g>
		<line class="st1" x1="38.5" y1="38.9" x2="40.1" y2="33.1"/>
		
			<rect x="35.8" y="27.2" transform="matrix(0.2589 -0.9659 0.9659 0.2589 4.2305 60.5819)" class="st1" width="11.6" height="0.7"/>
		<ellipse transform="matrix(0.2588 -0.9659 0.9659 0.2588 11.4823 57.5836)" class="st1" cx="43.3" cy="21.3" rx="0.7" ry="0.7"/>
	</g>
	<g>
		<line class="st1" x1="45.4" y1="40" x2="48.4" y2="34.8"/>
		<rect x="45.5" y="29.4" transform="matrix(0.5 -0.866 0.866 0.5 -0.1861 59.3044)" class="st1" width="11.6" height="0.7"/>
		<ellipse transform="matrix(0.4999 -0.8661 0.8661 0.4999 6.2603 59.3081)" class="st1" cx="54.5" cy="24.2" rx="0.7" ry="0.7"/>
	</g>
	<g>
		<line class="st1" x1="25.5" y1="38.9" x2="23.9" y2="33.1"/>
		<rect x="22" y="21.7" transform="matrix(0.9659 -0.2588 0.2588 0.9659 -6.3626 6.737)" class="st1" width="0.7" height="11.6"/>
		<ellipse transform="matrix(0.9659 -0.2588 0.2588 0.9659 -4.8083 6.0928)" class="st1" cx="20.7" cy="21.3" rx="0.7" ry="0.7"/>
	</g>
	<g>
		<line class="st1" x1="18.6" y1="40" x2="15.6" y2="34.8"/>
		<rect x="12.4" y="24" transform="matrix(0.866 -0.5 0.5 0.866 -13.2 10.3616)" class="st1" width="0.7" height="11.6"/>
		<ellipse transform="matrix(0.8661 -0.4999 0.4999 0.8661 -10.8407 8.002)" class="st1" cx="9.5" cy="24.2" rx="0.7" ry="0.7"/>
	</g>
</g>
</svg>
