<?xml version="1.0" encoding="utf-8"?>
<!-- Generator: Adobe Illustrator 21.0.2, SVG Export Plug-In . SVG Version: 6.00 Build 0)  -->
<svg version="1.1" id="Layer_1" xmlns="http://www.w3.org/2000/svg" xmlns:xlink="http://www.w3.org/1999/xlink" x="0px" y="0px"
	 viewBox="0 0 64 64" style="enable-background:new 0 0 64 64;" xml:space="preserve">
<style type="text/css">
	.st0{fill:#2F333B;}
	.st1{fill:none;stroke:#FFFFFF;stroke-linecap:round;stroke-linejoin:round;stroke-miterlimit:10;}
	.st2{fill:#FFFFFF;}
	.st3{fill-rule:evenodd;clip-rule:evenodd;fill:#FFFFFF;}
</style>
<g>
	<circle class="st0" cx="32" cy="-120.7" r="32"/>
</g>
<g>
	<circle class="st0" cx="106" cy="-120.7" r="32"/>
</g>
<g>
	<circle class="st0" cx="32" cy="-192.7" r="32"/>
</g>
<g>
	<circle class="st0" cx="106" cy="-192.7" r="32"/>
</g>
<g>
	<circle class="st0" cx="-42" cy="-192.7" r="32"/>
</g>
<g>
	<circle class="st0" cx="-42" cy="-120.7" r="32"/>
</g>
<g>
	<path class="st1" d="M130-184.5c0,5.3-4.8,9.9-12.1,12.6H94.1c-7.3-2.7-12.1-7.3-12.1-12.6v-14.5h48V-184.5z"/>
	<rect x="82" y="-198.5" class="st1" width="48" height="7.3"/>
</g>
<g>
	<circle class="st0" cx="-42" cy="-43.7" r="32"/>
</g>
<g>
	<circle class="st0" cx="-42" cy="30.3" r="32"/>
</g>
<g>
	<g>
		<rect x="-47" y="-144.7" class="st1" width="10.1" height="4.6"/>
		<path class="st1" d="M-37.8-138.4c4.2,0,6.9,2.7,6.9,6.1v35.6h-22.3v-35.6c0-3.4,2.7-6.1,6.9-6.1v-1.7h8.4V-138.4z"/>
		<line class="st1" x1="-53.1" y1="-126.5" x2="-30.9" y2="-126.5"/>
	</g>
	<rect x="-50.1" y="-122.3" class="st1" width="16.2" height="21.1"/>
</g>
<g>
	<circle class="st0" cx="32" cy="-44.7" r="32"/>
</g>
<g>
	<g>
		<rect x="27" y="-216.7" class="st1" width="10.1" height="4.6"/>
		<path class="st1" d="M36.2-210.4c4.2,0,6.9,2.7,6.9,6.1v35.6H20.9v-35.6c0-3.4,2.7-6.1,6.9-6.1v-1.7h8.4V-210.4z"/>
		<line class="st1" x1="20.9" y1="-198.5" x2="43.1" y2="-198.5"/>
		<g>
			<path class="st2" d="M22.5-193.7h9.8c0.8,0,1.6,0.2,2.5,0.6s1.6,0.8,2.1,1.3c0.9,0.9,1.4,2.1,1.4,3.5c0,1.3-0.4,2.4-1.2,3.2
				s-2.2,1.4-4.1,1.9l3.5,4.3l1.2-1.3c0.1-0.1,0.2-0.3,0.2-0.4c0-0.4-0.3-0.6-0.9-0.8l0-0.4l4,0v0.4c-0.8,0.1-1.2,0.3-1.4,0.5
				l-2.3,2.8l2.8,3.4c0.3,0.3,0.7,0.5,1.4,0.5l0,0.5h-4l-1.9-2.3l-1,1.2c-0.1,0.1-0.1,0.2-0.1,0.3c0,0.2,0.2,0.3,0.7,0.3h0.4v0.5
				l-3.5,0v-0.5c0.5-0.1,0.9-0.3,1.1-0.6l1.7-2l-5-6.1l-1.6-0.1l0,7c0,0.5,0.2,1,0.6,1.3s0.9,0.5,1.6,0.5h0.5v0.5h-8.3l0-0.5H23
				c0.6,0,1.1-0.1,1.5-0.4s0.6-0.7,0.6-1.1l0-15.4c0-0.6-0.2-1.2-0.5-1.5s-0.8-0.6-1.5-0.6l-0.5,0L22.5-193.7z M28.2-183.9l1,0
				c1.9,0,3.4-0.4,4.4-1.2s1.6-1.9,1.6-3.4c0-2.6-1.8-3.8-5.3-3.8c-1.2,0-1.8,0.4-1.8,1.1L28.2-183.9z"/>
		</g>
	</g>
</g>
<g>
	<circle class="st0" cx="106" cy="-44.7" r="32"/>
</g>
<g>
	<g>
		<g>
			<path class="st1" d="M-27.1-191c1.3-0.4,2.9,0.4,2.9,2.9c0,2.7-2.2,5.3-4.4,5.5"/>
			<path class="st1" d="M-42-168.7c-5,0-15.1-8.2-15.1-25.1c0-14.2,4.5-18.4,15.1-18.4c10.6,0,15.1,4.3,15.1,18.4
				C-26.9-176.8-37-168.7-42-168.7z"/>
			<path class="st1" d="M-56.9-191c-1.3-0.4-2.9,0.4-2.9,2.9c0,2.7,2.2,5.3,4.4,5.5"/>
		</g>
		<path class="st1" d="M-56.3-186.1c-0.8-17.1,18.2-10.8,24.8-15.1c-0.9,6.1,0.9,13.7,3.6,16.4"/>
		<path class="st1" d="M-48.7-211.4c-0.1-0.3-0.1-0.6-0.1-0.9c0-2.4,3.1-4.4,6.9-4.4c3.8,0,6.9,2,6.9,4.4c0,0.3,0,0.6-0.1,0.9"/>
	</g>
	<path class="st1" d="M-42-170.9c-2.9,0-9.8-4.8-12.1-15.5c-0.3-8.7,5-9.8,13.8-10.6c2.2-0.2,4.4-0.4,6.3-0.9
		c0,5.1,1.4,10.5,3.6,13.6C-33.1-175.1-39.3-170.9-42-170.9z"/>
	<circle class="st1" cx="-47.7" cy="-188" r="3.2"/>
	<path class="st1" d="M-45.5-187.9c-1.2,1.2-3.2,1.2-4.5,0"/>
	<path class="st1" d="M-34-187.9c-1.2,1.2-3.2,1.2-4.5,0"/>
	<path class="st1" d="M-38.9-178.6c-1.2,1.2-5,1.2-6.2,0"/>
	<circle class="st1" cx="-36.3" cy="-188" r="3.2"/>
	<path class="st1" d="M-44.3-176.2c-1.1,0-1.9-0.9-1.9-1.9c0-1.1,0.9-1.9,1.9-1.9h4.7c1.1,0,1.9,0.9,1.9,1.9c0,1.1-0.9,1.9-1.9,1.9
		H-44.3z"/>
</g>
<g>
	<path class="st1" d="M-30.8-49.1c0,7.9-5,12.6-11.2,12.6c-6.2,0-11.2-4.7-11.2-12.6C-53.2-57-42-68.5-42-68.5S-30.8-57-30.8-49.1z"
		/>
	<path class="st1" d="M-49.9-49.1c0,5.6,3.2,9.3,7.9,9.3"/>
	<path class="st1" d="M-33.3-40.7c3.7,1.1,6,2.9,6,4.9c0,3.4-6.6,6.1-14.7,6.1c-8.1,0-14.7-2.7-14.7-6.1c0-2,2.4-3.8,6-4.9"/>
	<path class="st1" d="M-31.4-44.5c7.9,1.9,13.4,5.8,13.4,10.3c0,6.3-10.7,11.4-24,11.4c-13.3,0-24-5.1-24-11.4
		c0-4.5,5.5-8.4,13.4-10.3"/>
</g>
<g>
	<g>
		<rect x="86" y="-135.5" class="st1" width="40" height="6"/>
	</g>
	<g>
		<g>
			<path class="st1" d="M85.5-109.3c0,3.3,2.7,6,6,6h29c3.3,0,6-2.7,6-6v-14c0-3.3-2.7-6-6-6h-29c-3.3,0-6,2.7-6,6V-109.3z"/>
		</g>
	</g>
</g>
<g>
	<g>
		<g>
			<g>
				<path class="st1" d="M46.1-113.7c1.2-0.4,2.7,0.4,2.7,2.7c0,2.5-2.1,5-4.1,5.1"/>
				<path class="st1" d="M32-92.7c-4.7,0-14.2-7.7-14.2-23.7c0-13.4,4.2-17.4,14.2-17.4c10,0,14.2,4,14.2,17.4
					C46.2-100.3,36.7-92.7,32-92.7z"/>
				<path class="st1" d="M17.9-113.7c-1.2-0.4-2.7,0.4-2.7,2.7c0,2.5,2.1,5,4.1,5.1"/>
			</g>
			<path class="st1" d="M18.5-109.1c-0.7-16.1,17.1-10.2,23.3-14.2c-0.8,5.7,0.9,12.9,3.4,15.4"/>
		</g>
		<circle class="st1" cx="26.6" cy="-110.8" r="3"/>
		<path class="st1" d="M34.9-102c-1.2,1.2-4.7,1.2-5.9,0"/>
		<circle class="st1" cx="37.4" cy="-110.8" r="3"/>
		<circle class="st1" cx="37.4" cy="-110.8" r="0.5"/>
		<circle class="st1" cx="26.6" cy="-110.8" r="0.5"/>
	</g>
	<path class="st1" d="M47.1-135.2c-0.9,1.7-2.4,3.4-1.2,6.2c1.5,3.5,1.6,5,1.8,6.1c0.2,1.1,0.3,1.7,0.8,1.8c0.5,0.1,1.2-0.8,1-2.2
		c-0.2-1-0.6-3.6-0.3-3.7c0.3-0.1,1.3,0.6,1.7,2.7c0.3,1.5,0.2,2.6,0,4c-0.3,1.7-1.8,4.4-0.5,5c0.5,0.2,1.9-3.5,2.4-4.7
		c0.6-1.4,1.2-5,0.8-6.3c-0.6-2.1-2.6-5.1-2.3-7.1c0.4-1.9,0.9-2.5,1.2-3c0.7-1.1,0.2-2.8-3.2-4.4C49.4-140.7,47.7-136.2,47.1-135.2
		z"/>
	<path class="st1" d="M13.6-115.2c1.3-0.6-0.2-3.3-0.5-5c-0.2-1.4-0.3-2.5,0-4c0.4-2.1,1.4-2.8,1.7-2.7c0.3,0.1-0.2,2.7-0.3,3.7
		c-0.2,1.4,0.5,2.2,1,2.2c0.5-0.1,0.6-0.7,0.8-1.8c0.2-1.1,0.3-2.5,1.8-6.1c1.2-2.8-0.3-4.5-1.2-6.2c-0.5-1-2.2-5.5-2.2-5.5
		c-3.4,1.6-3.9,3.3-3.2,4.4c0.3,0.5,0.8,1,1.2,3c0.4,1.9-1.7,5-2.3,7.1c-0.4,1.3,0.3,4.9,0.8,6.3C11.6-118.7,13.1-115,13.6-115.2z"
		/>
</g>
<g>
	<g>
		<circle class="st1" cx="34.9" cy="-55.1" r="0.9"/>
		<circle class="st1" cx="28.5" cy="-54.1" r="0.9"/>
		<circle class="st1" cx="49.2" cy="-53.3" r="0.9"/>
		<circle class="st1" cx="45.3" cy="-55.1" r="0.9"/>
		<circle class="st1" cx="24.3" cy="-53.3" r="0.9"/>
		<circle class="st1" cx="42.4" cy="-53.2" r="0.9"/>
		<circle class="st1" cx="38.3" cy="-54.1" r="0.9"/>
		<circle class="st1" cx="32.1" cy="-53.3" r="0.9"/>
		<circle class="st1" cx="52.9" cy="-54.1" r="0.9"/>
	</g>
	<path class="st1" d="M46-21.1H18c-5.5,0-10-24.5-10-30h48C56-45.6,51.5-21.1,46-21.1z"/>
	<g>
		<rect x="9" y="-58.1" class="st1" width="2" height="7"/>
		<g>
			<rect x="9" y="-60.2" class="st1" width="5.6" height="2.1"/>
			<polygon class="st1" points="14.6,-60.2 18.7,-58.8 18.7,-57.4 14.6,-58.1 			"/>
			<path class="st1" d="M18.7-53c-0.6,0-1-0.5-1-1.1c0-0.9,1-1.8,1-1.8s1,0.8,1,1.8C19.7-53.4,19.3-53,18.7-53z"/>
		</g>
	</g>
</g>
<g>
	<circle class="st0" cx="32" cy="32" r="32"/>
</g>
<g>
	<circle class="st0" cx="32" cy="115.3" r="32"/>
</g>
<g>
	<g>
		<circle class="st1" cx="34.9" cy="104.9" r="0.9"/>
		<circle class="st1" cx="28.5" cy="105.9" r="0.9"/>
		<circle class="st1" cx="49.2" cy="106.7" r="0.9"/>
		<circle class="st1" cx="45.3" cy="104.9" r="0.9"/>
		<circle class="st1" cx="24.3" cy="106.7" r="0.9"/>
		<circle class="st1" cx="42.4" cy="106.8" r="0.9"/>
		<circle class="st1" cx="38.3" cy="105.9" r="0.9"/>
		<circle class="st1" cx="32.1" cy="106.7" r="0.9"/>
		<circle class="st1" cx="52.9" cy="105.9" r="0.9"/>
	</g>
	<path class="st1" d="M46,138.9H18c-5.5,0-10-24.5-10-30h48C56,114.4,51.5,138.9,46,138.9z"/>
	<g>
		<rect x="9" y="101.9" class="st1" width="2" height="7"/>
		<g>
			<rect x="9" y="99.8" class="st1" width="5.6" height="2.1"/>
			<polygon class="st1" points="14.6,99.8 18.7,101.2 18.7,102.6 14.6,101.9 			"/>
			<path class="st1" d="M18.7,107c-0.6,0-1-0.5-1-1.1c0-0.9,1-1.8,1-1.8s1,0.8,1,1.8C19.7,106.6,19.3,107,18.7,107z"/>
		</g>
	</g>
</g>
<g>
	<g>
		<g>
			<rect x="101.2" y="-62.5" class="st1" width="8.8" height="4"/>
			<path class="st1" d="M109.3-57c3.7,0,6,2.4,6,5.3v31H95.9v-31c0-2.9,2.4-5.3,6-5.3v-1.4h7.4V-57z"/>
			<line class="st1" x1="95.9" y1="-46.6" x2="115.3" y2="-46.6"/>
			<g>
				<rect x="100.8" y="-68.7" class="st1" width="9.7" height="2.1"/>
				<polygon class="st1" points="110.5,-68.7 114.7,-67.2 114.7,-65.8 110.5,-66.5 				"/>
				<rect x="104.1" y="-66.5" class="st1" width="1.6" height="4"/>
				<path class="st1" d="M114.7-59.8c-0.8,0-1.4-0.7-1.4-1.5c0-1.3,1.4-2.5,1.4-2.5s1.4,1.2,1.4,2.5
					C116.1-60.5,115.5-59.8,114.7-59.8z"/>
			</g>
		</g>
	</g>
	<g>
		<path class="st1" d="M105.6-40.1c-0.9-0.4-2,0.1-2.3,1c-0.4,0.9,0.1,2,1,2.3c-0.4,0.9,0.1,2,1,2.3c0.9,0.4,2-0.1,2.3-1
			c0.9,0.4,2-0.1,2.3-1c0.4-0.9-0.1-2-1-2.3c0.4-0.9-0.1-2-1-2.3C107-41.5,106-41,105.6-40.1z M107.8-37.3c-0.3,0.7-1,1-1.7,0.7
			c-0.7-0.3-1-1-0.7-1.7c0.3-0.7,1-1,1.7-0.7C107.8-38.7,108.1-37.9,107.8-37.3z"/>
		<path class="st1" d="M108.9-32.2c-0.9-0.4-2,0.1-2.3,1c-0.4,0.9,0.1,2,1,2.3c-0.4,0.9,0.1,2,1,2.3c0.9,0.4,2-0.1,2.3-1
			c0.9,0.4,2-0.1,2.3-1c0.4-0.9-0.1-2-1-2.3c0.4-0.9-0.1-2-1-2.3C110.3-33.6,109.2-33.1,108.9-32.2z M111.1-29.4
			c-0.3,0.7-1,1-1.7,0.7c-0.7-0.3-1-1-0.7-1.7c0.3-0.7,1-1,1.7-0.7C111-30.8,111.4-30.1,111.1-29.4z"/>
	</g>
	<rect x="101.2" y="-43" class="st1" width="14.1" height="18.4"/>
</g>
<g>
	<circle class="st0" cx="106" cy="34" r="32"/>
</g>
<g>
	<g>
		<g>
			<rect x="101.2" y="16.2" class="st1" width="8.8" height="4"/>
			<path class="st1" d="M109.3,21.7c3.7,0,6,2.4,6,5.3v31H95.9V27c0-2.9,2.4-5.3,6-5.3v-1.4h7.4V21.7z"/>
			<line class="st1" x1="95.9" y1="32" x2="115.3" y2="32"/>
			<g>
				<rect x="100.8" y="10" class="st1" width="9.7" height="2.1"/>
				<polygon class="st1" points="110.5,10 114.7,11.4 114.7,12.9 110.5,12.1 				"/>
				<rect x="104.1" y="12.1" class="st1" width="1.6" height="4"/>
				<path class="st1" d="M114.7,18.9c-0.8,0-1.4-0.7-1.4-1.5c0-1.3,1.4-2.5,1.4-2.5s1.4,1.2,1.4,2.5
					C116.1,18.2,115.5,18.9,114.7,18.9z"/>
			</g>
		</g>
	</g>
	<g>
		<path class="st1" d="M105.6,38.6c-0.9-0.4-2,0.1-2.3,1c-0.4,0.9,0.1,2,1,2.3c-0.4,0.9,0.1,2,1,2.3c0.9,0.4,2-0.1,2.3-1
			c0.9,0.4,2-0.1,2.3-1c0.4-0.9-0.1-2-1-2.3c0.4-0.9-0.1-2-1-2.3C107,37.2,106,37.7,105.6,38.6z M107.8,41.4c-0.3,0.7-1,1-1.7,0.7
			c-0.7-0.3-1-1-0.7-1.7c0.3-0.7,1-1,1.7-0.7C107.8,40,108.1,40.7,107.8,41.4z"/>
		<path class="st1" d="M108.9,46.5c-0.9-0.4-2,0.1-2.3,1c-0.4,0.9,0.1,2,1,2.3c-0.4,0.9,0.1,2,1,2.3c0.9,0.4,2-0.1,2.3-1
			c0.9,0.4,2-0.1,2.3-1c0.4-0.9-0.1-2-1-2.3c0.4-0.9-0.1-2-1-2.3C110.3,45.1,109.2,45.5,108.9,46.5z M111.1,49.2
			c-0.3,0.7-1,1-1.7,0.7c-0.7-0.3-1-1-0.7-1.7c0.3-0.7,1-1,1.7-0.7C111,47.9,111.4,48.6,111.1,49.2z"/>
	</g>
	<rect x="101.2" y="35.7" class="st1" width="14.1" height="18.4"/>
</g>
<g>
	<path id="XMLID_263_" class="st3" d="M-35.1,34.9c0.6,0.4,1.1,1,1.4,1.5c0,0,0,0.1,0,0.1h1.6c0.6,0,1.2,0.3,1.6,0.7
		c0.4,0.4,0.7,1,0.7,1.6v2.3h-0.9v-2.3c0-0.4-0.2-0.8-0.4-1c-0.3-0.3-0.6-0.4-1-0.4h-1.3c0.1,0.2,0.1,0.5,0.1,0.7l0,4.2
		c0,0.3,0.2,0.5,0.5,0.5c0.5,0,0.9,0,1.4,0c0,2.3,0,4.6,0,6.9v1.7v0.4h-4.8v-1.3c0-0.7,0.6-1.3,1.3-1.3h0.7v-3.7h-1.2
		c-1,0-1.9-0.4-2.5-1.1c-0.6-0.6-1.1-1.5-1.1-2.5v-1.3h-3.3c-0.4,0.6-1,1.1-1.7,1.4c-0.7,0.4-1.5,0.6-2.4,0.6h-2.1
		c-0.1,0.3-0.2,0.5-0.4,0.7c-0.2,0.2-0.5,0.4-0.7,0.6v5.7v2.2h-4.8v-1.3c0-0.7,0.6-1.3,1.3-1.3h0.7v-6.9l-1.1-9.3h-4.5
		c-0.3,0-0.5-0.1-0.6-0.3l0,0c-0.2-0.2-0.3-0.4-0.3-0.7v-0.6c0-0.2,0.1-0.4,0.3-0.6c0.1-0.1,0.3-0.2,0.6-0.3l1.8-0.5
		c0.1-0.4,0.2-0.8,0.5-1c0.3-0.4,0.7-0.6,1.2-0.6h0.5l0,0h1.6v-2.3l0.8-0.2l3.7,8.3h5.6v0.9l-6.2,0l-3.1-6.9v1.2h-2v0h-1
		c-0.2,0-0.4,0.1-0.6,0.3c-0.2,0.2-0.3,0.5-0.3,0.8v0.3l-2.4,0.7c-0.1,0-0.1,0-0.2,0.1v0.6c0,0,0,0,0,0v0c0,0,0,0,0,0h5.3l1.2,10
		c0,2.6,0,5.3,0,7.9c-0.5,0-1.1,0-1.6,0c-0.2,0-0.4,0.2-0.4,0.4V51h3v-1.3l0-6.4l0.3,0c0.2-0.1,0.5-0.2,0.6-0.4
		c0.1-0.2,0.2-0.4,0.2-0.7v-5.1h0.9v4.7h2.1c0.7,0,1.4-0.2,2-0.5c0.6-0.3,1.2-0.8,1.5-1.4l0.1-0.2c1.5,0,3.2,0,4.7,0
		c0,0.7,0,1.4,0,2.2c0,0.7,0.3,1.4,0.8,1.9c0.5,0.5,1.2,0.8,1.9,0.8h2c0,1.8,0,3.6,0,5.4c-0.5,0-1.1,0-1.6,0c-0.2,0-0.4,0.2-0.4,0.4
		V51h3v-1.3v-6h-0.5c-0.7,0-1.4-0.6-1.4-1.4v-4.1l0-0.1c0-0.4-0.1-0.8-0.3-1.3c-0.2-0.5-0.6-0.9-1.1-1.2L-35.1,34.9L-35.1,34.9z
		 M-37.6,35.8c-0.1,0.1,0,0.2,0.1,0.3c0.1,0.1,0.2,0,0.3-0.1l1.3-2l-0.3-0.2l0,0L-37.6,35.8L-37.6,35.8z M-35.3,34.4
		c0.2,0.1,0.5,0.1,0.7,0.1c0.3-0.1,0.5-0.2,0.7-0.5l0.7-1.1l5.9,3.8c0.6,0.4,1.2,0.4,1.6,0.2c0.2-0.1,0.3-0.2,0.4-0.4
		c0.1-0.2,0.2-0.3,0.2-0.5c0-0.4-0.2-0.9-0.8-1.3l-5.9-3.8l-1.5-0.9l-6.8-4.4c-0.3-0.2-0.6-0.2-0.9-0.2c-0.3,0.1-0.5,0.2-0.7,0.5
		l0,0l-1.4,2.2c-0.2,0.3-0.2,0.6-0.2,0.9c0,0.2,0.2,0.4,0.4,0.6l-1.3,2c-0.1,0.2-0.2,0.5-0.1,0.7c0.1,0.2,0.2,0.5,0.4,0.6
		c0.2,0.1,0.4,0.2,0.6,0.2c0.1,0.2,0.2,0.4,0.4,0.5c0.2,0.1,0.4,0.2,0.6,0.2c0.1,0.2,0.2,0.4,0.4,0.5c0.2,0.1,0.4,0.2,0.6,0.2
		c0.1,0.2,0.2,0.4,0.4,0.5c0.2,0.1,0.4,0.2,0.6,0.2c0.1,0.2,0.2,0.4,0.4,0.5c0.2,0.1,0.4,0.2,0.6,0.2c0.1,0.2,0.2,0.4,0.4,0.5
		c0.2,0.1,0.4,0.2,0.6,0.2c0.1,0.2,0.2,0.4,0.4,0.5c0.2,0.1,0.5,0.2,0.7,0.1l0,0c0.3-0.1,0.5-0.2,0.6-0.4L-35.3,34.4L-35.3,34.4z
		 M-38.3,35.4l1.3-2l-0.3-0.2l-1.3,2l0,0c-0.1,0.1,0,0.2,0.1,0.3C-38.5,35.5-38.4,35.5-38.3,35.4L-38.3,35.4z M-37,32.4l0.4,0.3l0,0
		l0.7,0.4l0,0l0.8,0.5c0.1,0,0.2,0.1,0.2,0c0.1,0,0.2-0.1,0.2-0.1l1.6-2.4l-0.8-0.5l-6.8-4.4c-0.1,0-0.2-0.1-0.2,0
		c-0.1,0-0.2,0.1-0.2,0.1l0,0l-1.4,2.2c0,0.1-0.1,0.2,0,0.2c0,0.1,0.1,0.1,0.1,0.2l0.9,0.6l0.1,0.1l0.4,0.3l0.4,0.3l0,0l0.7,0.4l0,0
		l0.3,0.2l0.1,0.1l0.4,0.3l0.4,0.3l0,0l0.7,0.4l0,0l0.3,0.2l0.1,0.1L-37,32.4L-37,32.4z M-39.3,34.7l1.3-2l-0.3-0.2l-1.3,2
		c-0.1,0.1,0,0.2,0.1,0.3C-39.5,34.9-39.4,34.8-39.3,34.7L-39.3,34.7z M-40.3,34.1L-40.3,34.1l1.3-2l-0.3-0.2l-1.3,2l0,0
		c0,0,0,0.1,0,0.1c0,0,0,0.1,0.1,0.1c0,0,0.1,0,0.1,0C-40.4,34.2-40.3,34.2-40.3,34.1L-40.3,34.1z M-41.3,33.5l1.3-2l-0.3-0.2l0,0
		l-1.3,2c0,0,0,0.1,0,0.1c0,0,0,0.1,0.1,0.1c0,0,0.1,0,0.1,0l0,0C-41.3,33.5-41.3,33.5-41.3,33.5L-41.3,33.5z M-42.3,32.9
		L-42.3,32.9l1.3-2l-0.3-0.2l-1.3,2l0,0c0,0,0,0.1,0,0.1c0,0,0,0.1,0.1,0.1c0,0,0.1,0,0.1,0C-42.3,32.9-42.3,32.9-42.3,32.9
		L-42.3,32.9z M-43.2,32.2l1.3-2l-0.3-0.2l0,0l-1.3,2c-0.1,0.1,0,0.2,0.1,0.3C-43.4,32.3-43.3,32.3-43.2,32.2L-43.2,32.2z
		 M-32.8,32.2l5.9,3.8c0.3,0.2,0.6,0.3,0.8,0.2c0,0,0.1,0,0.1-0.1c0,0,0-0.1,0-0.1c0-0.2-0.1-0.4-0.5-0.6l-5.9-3.8L-32.8,32.2
		L-32.8,32.2z M-54.2,29.9v0.9h1.2v-0.9H-54.2z"/>
	<g>
		<path class="st1" d="M-28,53.8h-28c-5.5,0-10-24.5-10-30h48C-18,29.4-22.5,53.8-28,53.8z"/>
		<path class="st1" d="M-65,18.8h46c0.6,0,1,0.4,1,1v4h-48v-4C-66,19.3-65.6,18.8-65,18.8z"/>
	</g>
</g>
<g>
	<circle class="st0" cx="-42" cy="117" r="32"/>
</g>
<g>
	<path id="XMLID_1_" class="st3" d="M-35.1,121.6c0.6,0.4,1.1,1,1.4,1.5c0,0,0,0.1,0,0.1h1.6c0.6,0,1.2,0.3,1.6,0.7
		c0.4,0.4,0.7,1,0.7,1.6v2.3h-0.9v-2.3c0-0.4-0.2-0.8-0.4-1c-0.3-0.3-0.6-0.4-1-0.4h-1.3c0.1,0.2,0.1,0.5,0.1,0.7l0,4.2
		c0,0.3,0.2,0.5,0.5,0.5c0.5,0,0.9,0,1.4,0c0,2.3,0,4.6,0,6.9v1.7v0.4h-4.8v-1.3c0-0.7,0.6-1.3,1.3-1.3h0.7v-3.7h-1.2
		c-1,0-1.9-0.4-2.5-1.1c-0.6-0.6-1.1-1.5-1.1-2.5v-1.3h-3.3c-0.4,0.6-1,1.1-1.7,1.4c-0.7,0.4-1.5,0.6-2.4,0.6h-2.1
		c-0.1,0.3-0.2,0.5-0.4,0.7c-0.2,0.2-0.5,0.4-0.7,0.6v5.7v2.2h-4.8v-1.3c0-0.7,0.6-1.3,1.3-1.3h0.7V129l-1.1-9.3h-4.5
		c-0.3,0-0.5-0.1-0.6-0.3l0,0c-0.2-0.2-0.3-0.4-0.3-0.7v-0.6c0-0.2,0.1-0.4,0.3-0.6c0.1-0.1,0.3-0.2,0.6-0.3l1.8-0.5
		c0.1-0.4,0.2-0.8,0.5-1c0.3-0.4,0.7-0.6,1.2-0.6h0.5l0,0h1.6v-2.3l0.8-0.2l3.7,8.3h5.6v0.9l-6.2,0l-3.1-6.9v1.2h-2v0h-1
		c-0.2,0-0.4,0.1-0.6,0.3c-0.2,0.2-0.3,0.5-0.3,0.8v0.3l-2.4,0.7c-0.1,0-0.1,0-0.2,0.1v0.6c0,0,0,0,0,0v0c0,0,0,0,0,0h5.3l1.2,10
		c0,2.6,0,5.3,0,7.9c-0.5,0-1.1,0-1.6,0c-0.2,0-0.4,0.2-0.4,0.4v0.4h3v-1.3l0-6.4l0.3,0c0.2-0.1,0.5-0.2,0.6-0.4
		c0.1-0.2,0.2-0.4,0.2-0.7v-5.1h0.9v4.7h2.1c0.7,0,1.4-0.2,2-0.5c0.6-0.3,1.2-0.8,1.5-1.4l0.1-0.2c1.5,0,3.2,0,4.7,0
		c0,0.7,0,1.4,0,2.2c0,0.7,0.3,1.4,0.8,1.9c0.5,0.5,1.2,0.8,1.9,0.8h2c0,1.8,0,3.6,0,5.4c-0.5,0-1.1,0-1.6,0c-0.2,0-0.4,0.2-0.4,0.4
		v0.4h3v-1.3v-6h-0.5c-0.7,0-1.4-0.6-1.4-1.4v-4.1l0-0.1c0-0.4-0.1-0.8-0.3-1.3c-0.2-0.5-0.6-0.9-1.1-1.2L-35.1,121.6L-35.1,121.6z
		 M-37.6,122.5c-0.1,0.1,0,0.2,0.1,0.3c0.1,0.1,0.2,0,0.3-0.1l1.3-2l-0.3-0.2l0,0L-37.6,122.5L-37.6,122.5z M-35.3,121.1
		c0.2,0.1,0.5,0.1,0.7,0.1c0.3-0.1,0.5-0.2,0.7-0.5l0.7-1.1l5.9,3.8c0.6,0.4,1.2,0.4,1.6,0.2c0.2-0.1,0.3-0.2,0.4-0.4
		c0.1-0.2,0.2-0.3,0.2-0.5c0-0.4-0.2-0.9-0.8-1.3l-5.9-3.8l-1.5-0.9l-6.8-4.4c-0.3-0.2-0.6-0.2-0.9-0.2c-0.3,0.1-0.5,0.2-0.7,0.5
		l0,0l-1.4,2.2c-0.2,0.3-0.2,0.6-0.2,0.9c0,0.2,0.2,0.4,0.4,0.6l-1.3,2c-0.1,0.2-0.2,0.5-0.1,0.7c0.1,0.2,0.2,0.5,0.4,0.6
		c0.2,0.1,0.4,0.2,0.6,0.2c0.1,0.2,0.2,0.4,0.4,0.5c0.2,0.1,0.4,0.2,0.6,0.2c0.1,0.2,0.2,0.4,0.4,0.5c0.2,0.1,0.4,0.2,0.6,0.2
		c0.1,0.2,0.2,0.4,0.4,0.5c0.2,0.1,0.4,0.2,0.6,0.2c0.1,0.2,0.2,0.4,0.4,0.5c0.2,0.1,0.4,0.2,0.6,0.2c0.1,0.2,0.2,0.4,0.4,0.5
		c0.2,0.1,0.4,0.2,0.6,0.2c0.1,0.2,0.2,0.4,0.4,0.5c0.2,0.1,0.5,0.2,0.7,0.1l0,0c0.3-0.1,0.5-0.2,0.6-0.4L-35.3,121.1L-35.3,121.1z
		 M-38.3,122.1l1.3-2l-0.3-0.2l-1.3,2l0,0c-0.1,0.1,0,0.2,0.1,0.3C-38.5,122.2-38.4,122.1-38.3,122.1L-38.3,122.1z M-37,119.1
		l0.4,0.3l0,0l0.7,0.4l0,0l0.8,0.5c0.1,0,0.2,0.1,0.2,0c0.1,0,0.2-0.1,0.2-0.1l1.6-2.4l-0.8-0.5l-6.8-4.4c-0.1,0-0.2-0.1-0.2,0
		c-0.1,0-0.2,0.1-0.2,0.1l0,0l-1.4,2.2c0,0.1-0.1,0.2,0,0.2c0,0.1,0.1,0.1,0.1,0.2l0.9,0.6l0.1,0.1l0.4,0.3l0.4,0.3l0,0l0.7,0.4l0,0
		l0.3,0.2l0.1,0.1l0.4,0.3l0.4,0.3l0,0l0.7,0.4l0,0l0.3,0.2l0.1,0.1L-37,119.1L-37,119.1z M-39.3,121.4l1.3-2l-0.3-0.2l-1.3,2
		c-0.1,0.1,0,0.2,0.1,0.3C-39.5,121.5-39.4,121.5-39.3,121.4L-39.3,121.4z M-40.3,120.8L-40.3,120.8l1.3-2l-0.3-0.2l-1.3,2l0,0
		c0,0,0,0.1,0,0.1c0,0,0,0.1,0.1,0.1c0,0,0.1,0,0.1,0C-40.4,120.8-40.3,120.8-40.3,120.8L-40.3,120.8z M-41.3,120.1l1.3-2l-0.3-0.2
		l0,0l-1.3,2c0,0,0,0.1,0,0.1c0,0,0,0.1,0.1,0.1c0,0,0.1,0,0.1,0l0,0C-41.3,120.2-41.3,120.2-41.3,120.1L-41.3,120.1z M-42.3,119.5
		L-42.3,119.5l1.3-2l-0.3-0.2l-1.3,2l0,0c0,0,0,0.1,0,0.1c0,0,0,0.1,0.1,0.1c0,0,0.1,0,0.1,0C-42.3,119.6-42.3,119.6-42.3,119.5
		L-42.3,119.5z M-43.2,118.9l1.3-2l-0.3-0.2l0,0l-1.3,2c-0.1,0.1,0,0.2,0.1,0.3C-43.4,119-43.3,119-43.2,118.9L-43.2,118.9z
		 M-32.8,118.9l5.9,3.8c0.3,0.2,0.6,0.3,0.8,0.2c0,0,0.1,0,0.1-0.1c0,0,0-0.1,0-0.1c0-0.2-0.1-0.4-0.5-0.6l-5.9-3.8L-32.8,118.9
		L-32.8,118.9z M-54.2,116.6v0.9h1.2v-0.9H-54.2z"/>
	<g>
		<path class="st1" d="M-28,140.5h-28c-5.5,0-10-24.5-10-30h48C-18,116-22.5,140.5-28,140.5z"/>
		<path class="st1" d="M-65,105.5h46c0.6,0,1,0.4,1,1v4h-48v-4C-66,105.9-65.6,105.5-65,105.5z"/>
	</g>
</g>
<text transform="matrix(1 0 0 1 69.8819 51.1203)" class="st2" style="font-family:'Gotham-Black'; font-size:48px;">3</text>
<text transform="matrix(1 0 0 1 109.5486 60.4536)" style="font-family:'Gotham-Black'; font-size:48px;">3</text>
<g>
	<g>
		<path class="st2" d="M34.3,42.4H18l-1.5-6.6l17.4-20.7h9.4v20.4h4.3v7h-4.3v6.5h-9V42.4z M34.3,35.5v-9.6l-8,9.6H34.3z"/>
	</g>
</g>
</svg>
