<?xml version="1.0" encoding="utf-8"?>
<!-- Generator: Adobe Illustrator 21.0.2, SVG Export Plug-In . SVG Version: 6.00 Build 0)  -->
<svg version="1.1" id="Layer_1" xmlns="http://www.w3.org/2000/svg" xmlns:xlink="http://www.w3.org/1999/xlink" x="0px" y="0px"
	 viewBox="0 0 64 64" style="enable-background:new 0 0 64 64;" xml:space="preserve">
<style type="text/css">
	.st0{fill:#2F333B;}
	.st1{fill:none;stroke:#FFFFFF;stroke-linecap:round;stroke-linejoin:round;stroke-miterlimit:10;}
	.st2{fill:#FFFFFF;}
</style>
<g>
	<circle class="st0" cx="32" cy="32" r="32"/>
</g>
<g>
	<g>
		<g>
			<g>
				<path class="st1" d="M46.1,39c1.2-0.4,2.7,0.4,2.7,2.7c0,2.5-2.1,5-4.1,5.1"/>
				<path class="st1" d="M32,60c-4.7,0-14.2-7.7-14.2-23.7C17.8,23,22,19,32,19c10,0,14.2,4,14.2,17.4C46.2,52.3,36.7,60,32,60z"/>
				<path class="st1" d="M17.9,39c-1.2-0.4-2.7,0.4-2.7,2.7c0,2.5,2.1,5,4.1,5.1"/>
			</g>
			<path class="st1" d="M18.5,43.6c-0.7-16.1,17.1-10.2,23.3-14.2c-0.8,5.7,0.9,12.9,3.4,15.4"/>
		</g>
		<circle class="st1" cx="26.6" cy="41.8" r="3"/>
		<path class="st1" d="M34.9,50.6c-1.2,1.2-4.7,1.2-5.9,0"/>
		<circle class="st1" cx="37.4" cy="41.8" r="3"/>
		<circle class="st1" cx="37.4" cy="41.8" r="0.5"/>
		<circle class="st1" cx="26.6" cy="41.8" r="0.5"/>
	</g>
	<path class="st1" d="M47.1,17.5c-0.9,1.7-2.4,3.4-1.2,6.2c1.5,3.5,1.6,5,1.8,6.1c0.2,1.1,0.3,1.7,0.8,1.8c0.5,0.1,1.2-0.8,1-2.2
		c-0.2-1-0.6-3.6-0.3-3.7c0.3-0.1,1.3,0.6,1.7,2.7c0.3,1.5,0.2,2.6,0,4c-0.3,1.7-1.8,4.4-0.5,5c0.5,0.2,1.9-3.5,2.4-4.7
		c0.6-1.4,1.2-5,0.8-6.3c-0.6-2.1-2.6-5.1-2.3-7.1c0.4-1.9,0.9-2.5,1.2-3c0.7-1.1,0.2-2.8-3.2-4.4C49.4,12,47.7,16.5,47.1,17.5z"/>
	<path class="st1" d="M13.6,37.4c1.3-0.6-0.2-3.3-0.5-5c-0.2-1.4-0.3-2.5,0-4c0.4-2.1,1.4-2.8,1.7-2.7c0.3,0.1-0.2,2.7-0.3,3.7
		c-0.2,1.4,0.5,2.2,1,2.2c0.5-0.1,0.6-0.7,0.8-1.8c0.2-1.1,0.3-2.5,1.8-6.1c1.2-2.8-0.3-4.5-1.2-6.2c-0.5-1-2.2-5.5-2.2-5.5
		c-3.4,1.6-3.9,3.3-3.2,4.4c0.3,0.5,0.8,1,1.2,3c0.4,1.9-1.7,5-2.3,7.1c-0.4,1.3,0.3,4.9,0.8,6.3C11.6,34,13.1,37.7,13.6,37.4z"/>
</g>
</svg>
