<?xml version="1.0" encoding="utf-8"?>
<!-- Generator: Adobe Illustrator 21.0.2, SVG Export Plug-In . SVG Version: 6.00 Build 0)  -->
<svg version="1.1" id="Layer_1" xmlns="http://www.w3.org/2000/svg" xmlns:xlink="http://www.w3.org/1999/xlink" x="0px" y="0px"
	 viewBox="0 0 64 64" style="enable-background:new 0 0 64 64;" xml:space="preserve">
<style type="text/css">
	.st0{fill:#2F333B;}
	.st1{fill:none;stroke:#FFFFFF;stroke-linecap:round;stroke-linejoin:round;stroke-miterlimit:10;}
</style>
<g>
	<circle class="st0" cx="32" cy="32" r="32"/>
</g>
<g>
	<path class="st1" d="M43.2,26.6c0,7.9-5,12.6-11.2,12.6c-6.2,0-11.2-4.7-11.2-12.6C20.8,18.7,32,7.2,32,7.2S43.2,18.7,43.2,26.6z"
		/>
	<path class="st1" d="M24.1,26.6c0,5.6,3.2,9.3,7.9,9.3"/>
	<path class="st1" d="M40.7,35c3.7,1.1,6,2.9,6,4.9c0,3.4-6.6,6.1-14.7,6.1c-8.1,0-14.7-2.7-14.7-6.1c0-2,2.4-3.8,6-4.9"/>
	<path class="st1" d="M42.6,31.1C50.5,33,56,36.9,56,41.4c0,6.3-10.7,11.4-24,11.4c-13.3,0-24-5.1-24-11.4c0-4.5,5.5-8.4,13.4-10.3"
		/>
</g>
</svg>
