<?xml version="1.0" encoding="utf-8"?>
<!-- Generator: Adobe Illustrator 21.0.2, SVG Export Plug-In . SVG Version: 6.00 Build 0)  -->
<svg version="1.1" id="Layer_1" xmlns="http://www.w3.org/2000/svg" xmlns:xlink="http://www.w3.org/1999/xlink" x="0px" y="0px"
	 viewBox="0 0 64 64" style="enable-background:new 0 0 64 64;" xml:space="preserve">
<style type="text/css">
	.st0{fill:#2F333B;}
	.st1{fill:none;stroke:#FFFFFF;stroke-linecap:round;stroke-linejoin:round;stroke-miterlimit:10;}
	.st2{fill:#FFFFFF;}
	.st3{fill-rule:evenodd;clip-rule:evenodd;fill:#FFFFFF;}
</style>
<g>
	<circle class="st0" cx="-42" cy="32" r="32"/>
</g>
<g>
	<circle class="st0" cx="32" cy="32" r="32"/>
</g>
<g>
	<circle class="st0" cx="-42" cy="-40" r="32"/>
</g>
<g>
	<circle class="st0" cx="32" cy="-40" r="32"/>
</g>
<g>
	<circle class="st0" cx="-116" cy="-40" r="32"/>
</g>
<g>
	<circle class="st0" cx="-116" cy="32" r="32"/>
</g>
<g>
	<path class="st1" d="M56-31.8c0,5.3-4.8,9.9-12.1,12.6H20.1C12.8-21.9,8-26.5,8-31.8v-14.5h48V-31.8z"/>
	<rect x="8" y="-45.9" class="st1" width="48" height="7.3"/>
</g>
<g>
	<circle class="st0" cx="-116" cy="109" r="32"/>
</g>
<g>
	<circle class="st0" cx="-116" cy="183" r="32"/>
</g>
<g>
	<g>
		<rect x="-121" y="8" class="st1" width="10.1" height="4.6"/>
		<path class="st1" d="M-111.8,14.3c4.2,0,6.9,2.7,6.9,6.1V56h-22.3V20.4c0-3.4,2.7-6.1,6.9-6.1v-1.7h8.4V14.3z"/>
		<line class="st1" x1="-127.1" y1="26.2" x2="-104.9" y2="26.2"/>
	</g>
	<rect x="-124.1" y="30.4" class="st1" width="16.2" height="21.1"/>
</g>
<g>
	<circle class="st0" cx="-42" cy="108" r="32"/>
</g>
<g>
	<g>
		<rect x="-47" y="-64" class="st1" width="10.1" height="4.6"/>
		<path class="st1" d="M-37.8-57.7c4.2,0,6.9,2.7,6.9,6.1V-16h-22.3v-35.6c0-3.4,2.7-6.1,6.9-6.1v-1.7h8.4V-57.7z"/>
		<line class="st1" x1="-53.1" y1="-45.8" x2="-30.9" y2="-45.8"/>
		<g>
			<path class="st2" d="M-51.5-41h9.8c0.8,0,1.6,0.2,2.5,0.6s1.6,0.8,2.1,1.3c0.9,0.9,1.4,2.1,1.4,3.5c0,1.3-0.4,2.4-1.2,3.2
				s-2.2,1.4-4.1,1.9l3.5,4.3l1.2-1.3c0.1-0.1,0.2-0.3,0.2-0.4c0-0.4-0.3-0.6-0.9-0.8l0-0.4l4,0v0.4c-0.8,0.1-1.2,0.3-1.4,0.5
				l-2.3,2.8l2.8,3.4c0.3,0.3,0.7,0.5,1.4,0.5l0,0.5h-4l-1.9-2.3l-1,1.2c-0.1,0.1-0.1,0.2-0.1,0.3c0,0.2,0.2,0.3,0.7,0.3h0.4v0.5
				l-3.5,0v-0.5c0.5-0.1,0.9-0.3,1.1-0.6l1.7-2l-5-6.1l-1.6-0.1l0,7c0,0.5,0.2,1,0.6,1.3s0.9,0.5,1.6,0.5h0.5v0.5h-8.3l0-0.5h0.5
				c0.6,0,1.1-0.1,1.5-0.4s0.6-0.7,0.6-1.1l0-15.4c0-0.6-0.2-1.2-0.5-1.5s-0.8-0.6-1.5-0.6l-0.5,0L-51.5-41z M-45.8-31.3l1,0
				c1.9,0,3.4-0.4,4.4-1.2s1.6-1.9,1.6-3.4c0-2.6-1.8-3.8-5.3-3.8c-1.2,0-1.8,0.4-1.8,1.1L-45.8-31.3z"/>
		</g>
	</g>
</g>
<g>
	<circle class="st0" cx="32" cy="108" r="32"/>
</g>
<g>
	<g>
		<g>
			<path class="st1" d="M-101.1-38.3c1.3-0.4,2.9,0.4,2.9,2.9c0,2.7-2.2,5.3-4.4,5.5"/>
			<path class="st1" d="M-116-16c-5,0-15.1-8.2-15.1-25.1c0-14.2,4.5-18.4,15.1-18.4c10.6,0,15.1,4.3,15.1,18.4
				C-100.9-24.2-111-16-116-16z"/>
			<path class="st1" d="M-130.9-38.3c-1.3-0.4-2.9,0.4-2.9,2.9c0,2.7,2.2,5.3,4.4,5.5"/>
		</g>
		<path class="st1" d="M-130.3-33.5c-0.8-17.1,18.2-10.8,24.8-15.1c-0.9,6.1,0.9,13.7,3.6,16.4"/>
		<path class="st1" d="M-122.7-58.7c-0.1-0.3-0.1-0.6-0.1-0.9c0-2.4,3.1-4.4,6.9-4.4c3.8,0,6.9,2,6.9,4.4c0,0.3,0,0.6-0.1,0.9"/>
	</g>
	<path class="st1" d="M-116-18.2c-2.9,0-9.8-4.8-12.1-15.5c-0.3-8.7,5-9.8,13.8-10.6c2.2-0.2,4.4-0.4,6.3-0.9
		c0,5.1,1.4,10.5,3.6,13.6C-107.1-22.4-113.3-18.2-116-18.2z"/>
	<circle class="st1" cx="-121.7" cy="-35.3" r="3.2"/>
	<path class="st1" d="M-119.5-35.3c-1.2,1.2-3.2,1.2-4.5,0"/>
	<path class="st1" d="M-108-35.3c-1.2,1.2-3.2,1.2-4.5,0"/>
	<path class="st1" d="M-112.9-26c-1.2,1.2-5,1.2-6.2,0"/>
	<circle class="st1" cx="-110.3" cy="-35.3" r="3.2"/>
	<path class="st1" d="M-118.3-23.6c-1.1,0-1.9-0.9-1.9-1.9c0-1.1,0.9-1.9,1.9-1.9h4.7c1.1,0,1.9,0.9,1.9,1.9c0,1.1-0.9,1.9-1.9,1.9
		H-118.3z"/>
</g>
<g>
	<path class="st1" d="M-104.8,103.6c0,7.9-5,12.6-11.2,12.6c-6.2,0-11.2-4.7-11.2-12.6c0-7.9,11.2-19.4,11.2-19.4
		S-104.8,95.7-104.8,103.6z"/>
	<path class="st1" d="M-123.9,103.6c0,5.6,3.2,9.3,7.9,9.3"/>
	<path class="st1" d="M-107.3,112c3.7,1.1,6,2.9,6,4.9c0,3.4-6.6,6.1-14.7,6.1c-8.1,0-14.7-2.7-14.7-6.1c0-2,2.4-3.8,6-4.9"/>
	<path class="st1" d="M-105.4,108.1c7.9,1.9,13.4,5.8,13.4,10.3c0,6.3-10.7,11.4-24,11.4c-13.3,0-24-5.1-24-11.4
		c0-4.5,5.5-8.4,13.4-10.3"/>
</g>
<g>
	<g>
		<rect x="12" y="17.2" class="st1" width="40" height="6"/>
	</g>
	<g>
		<g>
			<path class="st1" d="M11.5,43.3c0,3.3,2.7,6,6,6h29c3.3,0,6-2.7,6-6v-14c0-3.3-2.7-6-6-6h-29c-3.3,0-6,2.7-6,6V43.3z"/>
		</g>
	</g>
</g>
<g>
	<g>
		<g>
			<g>
				<path class="st1" d="M-27.9,39c1.2-0.4,2.7,0.4,2.7,2.7c0,2.5-2.1,5-4.1,5.1"/>
				<path class="st1" d="M-42,60c-4.7,0-14.2-7.7-14.2-23.7C-56.2,23-52,19-42,19c10,0,14.2,4,14.2,17.4C-27.8,52.3-37.3,60-42,60z"
					/>
				<path class="st1" d="M-56.1,39c-1.2-0.4-2.7,0.4-2.7,2.7c0,2.5,2.1,5,4.1,5.1"/>
			</g>
			<path class="st1" d="M-55.5,43.6c-0.7-16.1,17.1-10.2,23.3-14.2c-0.8,5.7,0.9,12.9,3.4,15.4"/>
		</g>
		<circle class="st1" cx="-47.4" cy="41.8" r="3"/>
		<path class="st1" d="M-39.1,50.6c-1.2,1.2-4.7,1.2-5.9,0"/>
		<circle class="st1" cx="-36.6" cy="41.8" r="3"/>
		<circle class="st1" cx="-36.6" cy="41.8" r="0.5"/>
		<circle class="st1" cx="-47.4" cy="41.8" r="0.5"/>
	</g>
	<path class="st1" d="M-26.9,17.5c-0.9,1.7-2.4,3.4-1.2,6.2c1.5,3.5,1.6,5,1.8,6.1c0.2,1.1,0.3,1.7,0.8,1.8c0.5,0.1,1.2-0.8,1-2.2
		c-0.2-1-0.6-3.6-0.3-3.7c0.3-0.1,1.3,0.6,1.7,2.7c0.3,1.5,0.2,2.6,0,4c-0.3,1.7-1.8,4.4-0.5,5c0.5,0.2,1.9-3.5,2.4-4.7
		c0.6-1.4,1.2-5,0.8-6.3c-0.6-2.1-2.6-5.1-2.3-7.1c0.4-1.9,0.9-2.5,1.2-3c0.7-1.1,0.2-2.8-3.2-4.4C-24.6,12-26.3,16.5-26.9,17.5z"/>
	<path class="st1" d="M-60.4,37.4c1.3-0.6-0.2-3.3-0.5-5c-0.2-1.4-0.3-2.5,0-4c0.4-2.1,1.4-2.8,1.7-2.7c0.3,0.1-0.2,2.7-0.3,3.7
		c-0.2,1.4,0.5,2.2,1,2.2c0.5-0.1,0.6-0.7,0.8-1.8c0.2-1.1,0.3-2.5,1.8-6.1c1.2-2.8-0.3-4.5-1.2-6.2c-0.5-1-2.2-5.5-2.2-5.5
		c-3.4,1.6-3.9,3.3-3.2,4.4c0.3,0.5,0.8,1,1.2,3c0.4,1.9-1.7,5-2.3,7.1c-0.4,1.3,0.3,4.9,0.8,6.3C-62.4,34-60.9,37.7-60.4,37.4z"/>
</g>
<g>
	<g>
		<circle class="st1" cx="-39.1" cy="97.6" r="0.9"/>
		<circle class="st1" cx="-45.5" cy="98.6" r="0.9"/>
		<circle class="st1" cx="-24.8" cy="99.3" r="0.9"/>
		<circle class="st1" cx="-28.7" cy="97.6" r="0.9"/>
		<circle class="st1" cx="-49.7" cy="99.3" r="0.9"/>
		<circle class="st1" cx="-31.6" cy="99.4" r="0.9"/>
		<circle class="st1" cx="-35.7" cy="98.6" r="0.9"/>
		<circle class="st1" cx="-41.9" cy="99.3" r="0.9"/>
		<circle class="st1" cx="-21.1" cy="98.6" r="0.9"/>
	</g>
	<path class="st1" d="M-28,131.6h-28c-5.5,0-10-24.5-10-30h48C-18,107.1-22.5,131.6-28,131.6z"/>
	<g>
		<rect x="-65" y="94.6" class="st1" width="2" height="7"/>
		<g>
			<rect x="-65" y="92.4" class="st1" width="5.6" height="2.1"/>
			<polygon class="st1" points="-59.4,92.4 -55.3,93.9 -55.3,95.3 -59.4,94.6 			"/>
			<path class="st1" d="M-55.3,99.7c-0.6,0-1-0.5-1-1.1c0-0.9,1-1.8,1-1.8s1,0.8,1,1.8C-54.3,99.2-54.7,99.7-55.3,99.7z"/>
		</g>
	</g>
</g>
<g>
	<g>
		<g>
			<rect x="27.2" y="90.2" class="st1" width="8.8" height="4"/>
			<path class="st1" d="M35.3,95.7c3.7,0,6,2.4,6,5.3v31H21.9v-31c0-2.9,2.4-5.3,6-5.3v-1.4h7.4V95.7z"/>
			<line class="st1" x1="21.9" y1="106" x2="41.3" y2="106"/>
			<g>
				<rect x="26.8" y="84" class="st1" width="9.7" height="2.1"/>
				<polygon class="st1" points="36.5,84 40.7,85.4 40.7,86.9 36.5,86.1 				"/>
				<rect x="30.1" y="86.1" class="st1" width="1.6" height="4"/>
				<path class="st1" d="M40.7,92.9c-0.8,0-1.4-0.7-1.4-1.5c0-1.3,1.4-2.5,1.4-2.5s1.4,1.2,1.4,2.5C42.1,92.2,41.5,92.9,40.7,92.9z"
					/>
			</g>
		</g>
	</g>
	<g>
		<path class="st1" d="M31.6,112.6c-0.9-0.4-2,0.1-2.3,1c-0.4,0.9,0.1,2,1,2.3c-0.4,0.9,0.1,2,1,2.3c0.9,0.4,2-0.1,2.3-1
			c0.9,0.4,2-0.1,2.3-1c0.4-0.9-0.1-2-1-2.3c0.4-0.9-0.1-2-1-2.3C33,111.2,32,111.7,31.6,112.6z M33.8,115.4c-0.3,0.7-1,1-1.7,0.7
			c-0.7-0.3-1-1-0.7-1.7c0.3-0.7,1-1,1.7-0.7C33.8,114,34.1,114.7,33.8,115.4z"/>
		<path class="st1" d="M34.9,120.5c-0.9-0.4-2,0.1-2.3,1c-0.4,0.9,0.1,2,1,2.3c-0.4,0.9,0.1,2,1,2.3c0.9,0.4,2-0.1,2.3-1
			c0.9,0.4,2-0.1,2.3-1c0.4-0.9-0.1-2-1-2.3c0.4-0.9-0.1-2-1-2.3C36.3,119.1,35.2,119.5,34.9,120.5z M37.1,123.2
			c-0.3,0.7-1,1-1.7,0.7c-0.7-0.3-1-1-0.7-1.7c0.3-0.7,1-1,1.7-0.7C37,121.9,37.4,122.6,37.1,123.2z"/>
	</g>
	<rect x="27.2" y="109.7" class="st1" width="14.1" height="18.4"/>
</g>
<path id="XMLID_195_" class="st3" d="M-121.5,164.4h10.9V161c-3.6,0-7.3,0-10.9,0V164.4L-121.5,164.4z M-113.1,159h4.6v5.4
	c2,0.2,3.8,1.2,5.2,2.5c1.6,1.6,2.6,3.8,2.6,6.2v32.7c0,0.3-0.1,0.6-0.3,0.8c-0.2,0.2-0.5,0.3-0.8,0.3h-29.3v-12.1v-21.7
	c0-2.4,1-4.6,2.6-6.2c1.4-1.4,3.2-2.3,5.2-2.5V159h4.6H-113.1z M-119.3,185.1c0.2-1.7-0.9-3.5-2.4-4.2c-0.8-0.4-1.7-0.4-2.5,0.1
	c-0.7,0.4-1.2,1.2-1.3,2.1c-0.2,1.7,0.8,3.5,2.4,4.2c0.8,0.3,1.6,0.4,2.3,0c-0.2,0.2-0.4,0.4-0.6,0.7l-2.4,3.3c-0.7,0.9-1,2-1,3
	c0,1.5,0.7,2.7,1.9,3.6c1,0.7,2.5,1.2,4.4,1.2h4.8c1.9,0,3.4-0.5,4.4-1.2c1.2-0.8,1.9-2.1,1.9-3.6c0-1-0.4-2.1-1-3l-2.4-3.3
	c-0.2-0.3-0.4-0.5-0.6-0.7c0.7,0.4,1.5,0.3,2.3,0c1.6-0.7,2.6-2.5,2.4-4.2c-0.1-0.9-0.5-1.7-1.3-2.1c-0.8-0.4-1.6-0.4-2.5-0.1
	c-1.5,0.7-2.6,2.5-2.4,4.2c0,0.5,0.2,0.9,0.4,1.3c-0.3-0.2-0.5-0.3-0.8-0.5c-0.7-0.4-1.4-0.6-2.1-0.6c0.5-0.2,0.9-0.5,1.3-1
	c0.4-0.6,0.7-1.4,0.7-2.3c0-0.9-0.3-1.7-0.7-2.3c-0.5-0.7-1.2-1.2-2.1-1.2c-0.8,0-1.6,0.4-2.1,1.2c-0.4,0.6-0.7,1.4-0.7,2.3
	c0,0.9,0.3,1.7,0.7,2.3c0.3,0.5,0.8,0.8,1.3,1c-0.7,0.1-1.4,0.3-2.1,0.6c-0.3,0.1-0.5,0.3-0.8,0.5
	C-119.5,186-119.3,185.6-119.3,185.1L-119.3,185.1z M-121.3,184.9c0.1-0.8-0.5-1.8-1.2-2.2c-0.2-0.1-0.5-0.1-0.6,0
	c-0.1,0.1-0.2,0.3-0.3,0.5c-0.1,0.8,0.5,1.8,1.2,2.2c0.2,0.1,0.5,0.1,0.6,0v0C-121.4,185.4-121.4,185.2-121.3,184.9L-121.3,184.9z
	 M-110.7,184.9c0.1,0.6,0.4,0.7,0.9,0.5c0.7-0.3,1.3-1.3,1.2-2.2c0-0.3-0.1-0.5-0.3-0.5c-0.1-0.1-0.4-0.1-0.6,0
	C-110.2,183.1-110.8,184.1-110.7,184.9L-110.7,184.9z M-118.4,197.1h4.8c1.5,0,2.6-0.3,3.2-0.8c0.7-0.5,1-1.1,1-1.9
	c0-0.6-0.2-1.3-0.6-1.8l-2.4-3.3c-0.5-0.7-1-1.2-1.6-1.5c-1.2-0.6-2.9-0.6-4,0c-0.6,0.3-1.1,0.8-1.6,1.5l-2.4,3.3
	c-0.4,0.6-0.6,1.2-0.6,1.8c0,0.8,0.4,1.5,1,1.9C-120.9,196.8-119.9,197.1-118.4,197.1L-118.4,197.1z M-115.6,183.1
	c0.2-0.3,0.3-0.7,0.3-1.2c0-0.5-0.1-0.9-0.3-1.2c-0.3-0.4-0.6-0.4-0.9,0c-0.2,0.3-0.3,0.7-0.3,1.2c0,0.5,0.1,0.9,0.3,1.2
	C-116.1,183.5-115.9,183.5-115.6,183.1L-115.6,183.1z M-129.2,173.1V205h26.4v-31.8c0-1.8-0.8-3.5-2-4.7c-1.2-1.2-2.9-2-4.7-2h-12.9
	c-1.8,0-3.5,0.8-4.7,2C-128.4,169.6-129.2,171.3-129.2,173.1z"/>
</svg>
