<?xml version="1.0" encoding="utf-8"?>
<!-- Generator: Adobe Illustrator 21.0.2, SVG Export Plug-In . SVG Version: 6.00 Build 0)  -->
<svg version="1.1" id="Layer_1" xmlns="http://www.w3.org/2000/svg" xmlns:xlink="http://www.w3.org/1999/xlink" x="0px" y="0px"
	 viewBox="0 0 64 64" style="enable-background:new 0 0 64 64;" xml:space="preserve">
<style type="text/css">
	.st0{fill:#2F333B;}
	.st1{fill:none;stroke:#FFFFFF;stroke-linecap:round;stroke-linejoin:round;stroke-miterlimit:10;}
</style>
<g>
	<circle class="st0" cx="32" cy="32" r="32"/>
</g>
<g>
	<g>
		<rect x="22.2" y="8" class="st1" width="18.3" height="2.1"/>
		<polygon class="st1" points="40.6,8 44.7,9.4 44.7,10.9 40.6,10.1 		"/>
		<rect x="25.6" y="10.1" class="st1" width="1.6" height="4"/>
		<rect x="22.7" y="14.2" class="st1" width="8.8" height="4"/>
		<path class="st1" d="M30.7,19.7c3.7,0,6,2.4,6,5.3v31H17.3V25c0-2.9,2.4-5.3,6-5.3v-1.4h7.4V19.7z"/>
		<line class="st1" x1="17.3" y1="30" x2="36.8" y2="30"/>
		<path class="st1" d="M44.7,17.6c-1.1,0-1.9-0.9-1.9-2c0-1.8,1.9-3.4,1.9-3.4s1.9,1.6,1.9,3.4C46.7,16.7,45.8,17.6,44.7,17.6z"/>
	</g>
	<rect x="22.7" y="33.7" class="st1" width="14.1" height="18.4"/>
</g>
</svg>
