<?xml version="1.0" encoding="utf-8"?>
<!-- Generator: Adobe Illustrator 21.0.2, SVG Export Plug-In . SVG Version: 6.00 Build 0)  -->
<svg version="1.1" id="Layer_1" xmlns="http://www.w3.org/2000/svg" xmlns:xlink="http://www.w3.org/1999/xlink" x="0px" y="0px"
	 viewBox="0 0 64 64" style="enable-background:new 0 0 64 64;" xml:space="preserve">
<style type="text/css">
	.st0{fill:#2F333B;}
	.st1{fill:none;stroke:#FFFFFF;stroke-linecap:round;stroke-linejoin:round;stroke-miterlimit:10;}
</style>
<g>
	<circle class="st0" cx="32" cy="32" r="32"/>
</g>
<g>
	<g>
		<g>
			<path class="st1" d="M46.9,33.7c1.3-0.4,2.9,0.4,2.9,2.9c0,2.7-2.2,5.3-4.4,5.5"/>
			<path class="st1" d="M32,56c-5,0-15.1-8.2-15.1-25.1c0-14.2,4.5-18.4,15.1-18.4c10.6,0,15.1,4.3,15.1,18.4C47.1,47.8,37,56,32,56
				z"/>
			<path class="st1" d="M17.1,33.7c-1.3-0.4-2.9,0.4-2.9,2.9c0,2.7,2.2,5.3,4.4,5.5"/>
		</g>
		<path class="st1" d="M17.7,38.5c-0.8-17.1,18.2-10.8,24.8-15.1c-0.9,6.1,0.9,13.7,3.6,16.4"/>
		<path class="st1" d="M25.3,13.3c-0.1-0.3-0.1-0.6-0.1-0.9C25.1,10,28.2,8,32,8c3.8,0,6.9,2,6.9,4.4c0,0.3,0,0.6-0.1,0.9"/>
	</g>
	<path class="st1" d="M32,53.8c-2.9,0-9.8-4.8-12.1-15.5c-0.3-8.7,5-9.8,13.8-10.6c2.2-0.2,4.4-0.4,6.3-0.9c0,5.1,1.4,10.5,3.6,13.6
		C40.9,49.6,34.7,53.8,32,53.8z"/>
	<circle class="st1" cx="26.3" cy="36.7" r="3.2"/>
	<path class="st1" d="M28.5,36.7c-1.2,1.2-3.2,1.2-4.5,0"/>
	<path class="st1" d="M40,36.7c-1.2,1.2-3.2,1.2-4.5,0"/>
	<path class="st1" d="M35.1,46c-1.2,1.2-5,1.2-6.2,0"/>
	<circle class="st1" cx="37.7" cy="36.7" r="3.2"/>
	<path class="st1" d="M29.7,48.4c-1.1,0-1.9-0.9-1.9-1.9c0-1.1,0.9-1.9,1.9-1.9h4.7c1.1,0,1.9,0.9,1.9,1.9c0,1.1-0.9,1.9-1.9,1.9
		H29.7z"/>
</g>
</svg>
