<svg id="Layer_1" data-name="Layer 1" xmlns="http://www.w3.org/2000/svg" viewBox="0 0 64 64"><defs><style>.cls-1{fill:#4f4f4f;}.cls-2{fill:#fff;}</style></defs><title>angel cosmoceuticals icons</title><circle class="cls-1" cx="32" cy="32" r="32"/><path class="cls-2" d="M25.39,26.62,19.14,18.9S13,28.54,22.39,40.18s20.15,7.58,20.15,7.58L36.28,40s-4.62,1.28-8.85-3.95S25.39,26.62,25.39,26.62Z"/><path class="cls-2" d="M22.71,16,20,18.2l6.19,7.63,2.71-2.2a2,2,0,0,0,.29-2.8L25.51,16.3A2,2,0,0,0,22.71,16Z"/><path class="cls-2" d="M39.92,37.22l-2.71,2.2,6.19,7.63,2.71-2.19a2,2,0,0,0,.29-2.8l-3.68-4.54A2,2,0,0,0,39.92,37.22Z"/></svg>