<?xml version="1.0" encoding="utf-8"?>
<!-- Generator: Adobe Illustrator 21.0.2, SVG Export Plug-In . SVG Version: 6.00 Build 0)  -->
<svg version="1.1" id="Layer_1" xmlns="http://www.w3.org/2000/svg" xmlns:xlink="http://www.w3.org/1999/xlink" x="0px" y="0px"
	 viewBox="0 0 64 64" style="enable-background:new 0 0 64 64;" xml:space="preserve">
<style type="text/css">
	.st0{fill:#2F333B;}
	.st1{fill:none;stroke:#FFFFFF;stroke-linecap:round;stroke-linejoin:round;stroke-miterlimit:10;}
	.st2{fill:#FFFFFF;}
	.st3{fill-rule:evenodd;clip-rule:evenodd;fill:#FFFFFF;}
</style>
<g>
	<circle class="st0" cx="106" cy="-119" r="32"/>
</g>
<g>
	<circle class="st0" cx="180" cy="-119" r="32"/>
</g>
<g>
	<circle class="st0" cx="106" cy="-191" r="32"/>
</g>
<g>
	<circle class="st0" cx="180" cy="-191" r="32"/>
</g>
<g>
	<circle class="st0" cx="32" cy="-191" r="32"/>
</g>
<g>
	<circle class="st0" cx="32" cy="-119" r="32"/>
</g>
<g>
	<path class="st1" d="M204-182.8c0,5.3-4.8,9.9-12.1,12.6h-23.9c-7.3-2.7-12.1-7.3-12.1-12.6v-14.5h48V-182.8z"/>
	<rect x="156" y="-196.9" class="st1" width="48" height="7.3"/>
</g>
<g>
	<circle class="st0" cx="32" cy="-42" r="32"/>
</g>
<g>
	<circle class="st0" cx="32" cy="32" r="32"/>
</g>
<g>
	<g>
		<rect x="27" y="-143" class="st1" width="10.1" height="4.6"/>
		<path class="st1" d="M36.2-136.7c4.2,0,6.9,2.7,6.9,6.1V-95H20.9v-35.6c0-3.4,2.7-6.1,6.9-6.1v-1.7h8.4V-136.7z"/>
		<line class="st1" x1="20.9" y1="-124.8" x2="43.1" y2="-124.8"/>
	</g>
	<rect x="23.9" y="-120.6" class="st1" width="16.2" height="21.1"/>
</g>
<g>
	<circle class="st0" cx="106" cy="-43" r="32"/>
</g>
<g>
	<g>
		<rect x="101" y="-215" class="st1" width="10.1" height="4.6"/>
		<path class="st1" d="M110.2-208.7c4.2,0,6.9,2.7,6.9,6.1v35.6H94.9v-35.6c0-3.4,2.7-6.1,6.9-6.1v-1.7h8.4V-208.7z"/>
		<line class="st1" x1="94.9" y1="-196.8" x2="117.1" y2="-196.8"/>
		<g>
			<path class="st2" d="M96.5-192h9.8c0.8,0,1.6,0.2,2.5,0.6s1.6,0.8,2.1,1.3c0.9,0.9,1.4,2.1,1.4,3.5c0,1.3-0.4,2.4-1.2,3.2
				s-2.2,1.4-4.1,1.9l3.5,4.3l1.2-1.3c0.1-0.1,0.2-0.3,0.2-0.4c0-0.4-0.3-0.6-0.9-0.8l0-0.4l4,0v0.4c-0.8,0.1-1.2,0.3-1.4,0.5
				l-2.3,2.8l2.8,3.4c0.3,0.3,0.7,0.5,1.4,0.5l0,0.5h-4l-1.9-2.3l-1,1.2c-0.1,0.1-0.1,0.2-0.1,0.3c0,0.2,0.2,0.3,0.7,0.3h0.4v0.5
				l-3.5,0v-0.5c0.5-0.1,0.9-0.3,1.1-0.6l1.7-2l-5-6.1l-1.6-0.1l0,7c0,0.5,0.2,1,0.6,1.3s0.9,0.5,1.6,0.5h0.5v0.5h-8.3l0-0.5H97
				c0.6,0,1.1-0.1,1.5-0.4s0.6-0.7,0.6-1.1l0-15.4c0-0.6-0.2-1.2-0.5-1.5s-0.8-0.6-1.5-0.6l-0.5,0L96.5-192z M102.2-182.3l1,0
				c1.9,0,3.4-0.4,4.4-1.2s1.6-1.9,1.6-3.4c0-2.6-1.8-3.8-5.3-3.8c-1.2,0-1.8,0.4-1.8,1.1L102.2-182.3z"/>
		</g>
	</g>
</g>
<g>
	<circle class="st0" cx="180" cy="-43" r="32"/>
</g>
<g>
	<g>
		<g>
			<path class="st1" d="M46.9-189.3c1.3-0.4,2.9,0.4,2.9,2.9c0,2.7-2.2,5.3-4.4,5.5"/>
			<path class="st1" d="M32-167c-5,0-15.1-8.2-15.1-25.1c0-14.2,4.5-18.4,15.1-18.4c10.6,0,15.1,4.3,15.1,18.4
				C47.1-175.2,37-167,32-167z"/>
			<path class="st1" d="M17.1-189.3c-1.3-0.4-2.9,0.4-2.9,2.9c0,2.7,2.2,5.3,4.4,5.5"/>
		</g>
		<path class="st1" d="M17.7-184.5c-0.8-17.1,18.2-10.8,24.8-15.1c-0.9,6.1,0.9,13.7,3.6,16.4"/>
		<path class="st1" d="M25.3-209.7c-0.1-0.3-0.1-0.6-0.1-0.9c0-2.4,3.1-4.4,6.9-4.4c3.8,0,6.9,2,6.9,4.4c0,0.3,0,0.6-0.1,0.9"/>
	</g>
	<path class="st1" d="M32-169.2c-2.9,0-9.8-4.8-12.1-15.5c-0.3-8.7,5-9.8,13.8-10.6c2.2-0.2,4.4-0.4,6.3-0.9
		c0,5.1,1.4,10.5,3.6,13.6C40.9-173.4,34.7-169.2,32-169.2z"/>
	<circle class="st1" cx="26.3" cy="-186.3" r="3.2"/>
	<path class="st1" d="M28.5-186.3c-1.2,1.2-3.2,1.2-4.5,0"/>
	<path class="st1" d="M40-186.3c-1.2,1.2-3.2,1.2-4.5,0"/>
	<path class="st1" d="M35.1-177c-1.2,1.2-5,1.2-6.2,0"/>
	<circle class="st1" cx="37.7" cy="-186.3" r="3.2"/>
	<path class="st1" d="M29.7-174.6c-1.1,0-1.9-0.9-1.9-1.9c0-1.1,0.9-1.9,1.9-1.9h4.7c1.1,0,1.9,0.9,1.9,1.9c0,1.1-0.9,1.9-1.9,1.9
		H29.7z"/>
</g>
<g>
	<path class="st1" d="M43.2-47.4c0,7.9-5,12.6-11.2,12.6c-6.2,0-11.2-4.7-11.2-12.6c0-7.9,11.2-19.4,11.2-19.4S43.2-55.3,43.2-47.4z
		"/>
	<path class="st1" d="M24.1-47.4c0,5.6,3.2,9.3,7.9,9.3"/>
	<path class="st1" d="M40.7-39c3.7,1.1,6,2.9,6,4.9c0,3.4-6.6,6.1-14.7,6.1c-8.1,0-14.7-2.7-14.7-6.1c0-2,2.4-3.8,6-4.9"/>
	<path class="st1" d="M42.6-42.9C50.5-41,56-37.1,56-32.6c0,6.3-10.7,11.4-24,11.4c-13.3,0-24-5.1-24-11.4c0-4.5,5.5-8.4,13.4-10.3"
		/>
</g>
<g>
	<g>
		<rect x="160" y="-133.8" class="st1" width="40" height="6"/>
	</g>
	<g>
		<g>
			<path class="st1" d="M159.5-107.7c0,3.3,2.7,6,6,6h29c3.3,0,6-2.7,6-6v-14c0-3.3-2.7-6-6-6h-29c-3.3,0-6,2.7-6,6V-107.7z"/>
		</g>
	</g>
</g>
<g>
	<g>
		<g>
			<g>
				<path class="st1" d="M120.1-112c1.2-0.4,2.7,0.4,2.7,2.7c0,2.5-2.1,5-4.1,5.1"/>
				<path class="st1" d="M106-91c-4.7,0-14.2-7.7-14.2-23.7C91.8-128,96-132,106-132c10,0,14.2,4,14.2,17.4
					C120.2-98.7,110.7-91,106-91z"/>
				<path class="st1" d="M91.9-112c-1.2-0.4-2.7,0.4-2.7,2.7c0,2.5,2.1,5,4.1,5.1"/>
			</g>
			<path class="st1" d="M92.5-107.4c-0.7-16.1,17.1-10.2,23.3-14.2c-0.8,5.7,0.9,12.9,3.4,15.4"/>
		</g>
		<circle class="st1" cx="100.6" cy="-109.2" r="3"/>
		<path class="st1" d="M108.9-100.4c-1.2,1.2-4.7,1.2-5.9,0"/>
		<circle class="st1" cx="111.4" cy="-109.2" r="3"/>
		<circle class="st1" cx="111.4" cy="-109.2" r="0.5"/>
		<circle class="st1" cx="100.6" cy="-109.2" r="0.5"/>
	</g>
	<path class="st1" d="M121.1-133.5c-0.9,1.7-2.4,3.4-1.2,6.2c1.5,3.5,1.6,5,1.8,6.1c0.2,1.1,0.3,1.7,0.8,1.8c0.5,0.1,1.2-0.8,1-2.2
		c-0.2-1-0.6-3.6-0.3-3.7c0.3-0.1,1.3,0.6,1.7,2.7c0.3,1.5,0.2,2.6,0,4c-0.3,1.7-1.8,4.4-0.5,5c0.5,0.2,1.9-3.5,2.4-4.7
		c0.6-1.4,1.2-5,0.8-6.3c-0.6-2.1-2.6-5.1-2.3-7.1c0.4-1.9,0.9-2.5,1.2-3c0.7-1.1,0.2-2.8-3.2-4.4
		C123.4-139,121.7-134.5,121.1-133.5z"/>
	<path class="st1" d="M87.6-113.6c1.3-0.6-0.2-3.3-0.5-5c-0.2-1.4-0.3-2.5,0-4c0.4-2.1,1.4-2.8,1.7-2.7c0.3,0.1-0.2,2.7-0.3,3.7
		c-0.2,1.4,0.5,2.2,1,2.2c0.5-0.1,0.6-0.7,0.8-1.8c0.2-1.1,0.3-2.5,1.8-6.1c1.2-2.8-0.3-4.5-1.2-6.2c-0.5-1-2.2-5.5-2.2-5.5
		c-3.4,1.6-3.9,3.3-3.2,4.4c0.3,0.5,0.8,1,1.2,3c0.4,1.9-1.7,5-2.3,7.1c-0.4,1.3,0.3,4.9,0.8,6.3C85.6-117,87.1-113.3,87.6-113.6z"
		/>
</g>
<g>
	<g>
		<circle class="st1" cx="108.9" cy="-53.4" r="0.9"/>
		<circle class="st1" cx="102.5" cy="-52.4" r="0.9"/>
		<circle class="st1" cx="123.2" cy="-51.7" r="0.9"/>
		<circle class="st1" cx="119.3" cy="-53.4" r="0.9"/>
		<circle class="st1" cx="98.3" cy="-51.7" r="0.9"/>
		<circle class="st1" cx="116.4" cy="-51.6" r="0.9"/>
		<circle class="st1" cx="112.3" cy="-52.4" r="0.9"/>
		<circle class="st1" cx="106.1" cy="-51.7" r="0.9"/>
		<circle class="st1" cx="126.9" cy="-52.4" r="0.9"/>
	</g>
	<path class="st1" d="M120-19.4H92c-5.5,0-10-24.5-10-30h48C130-43.9,125.5-19.4,120-19.4z"/>
	<g>
		<rect x="83" y="-56.4" class="st1" width="2" height="7"/>
		<g>
			<rect x="83" y="-58.6" class="st1" width="5.6" height="2.1"/>
			<polygon class="st1" points="88.6,-58.6 92.7,-57.1 92.7,-55.7 88.6,-56.4 			"/>
			<path class="st1" d="M92.7-51.3c-0.6,0-1-0.5-1-1.1c0-0.9,1-1.8,1-1.8s1,0.8,1,1.8C93.7-51.8,93.3-51.3,92.7-51.3z"/>
		</g>
	</g>
</g>
<g>
	<circle class="st0" cx="106" cy="33.7" r="32"/>
</g>
<g>
	<circle class="st0" cx="106" cy="117" r="32"/>
</g>
<g>
	<g>
		<circle class="st1" cx="108.9" cy="106.6" r="0.9"/>
		<circle class="st1" cx="102.5" cy="107.6" r="0.9"/>
		<circle class="st1" cx="123.2" cy="108.3" r="0.9"/>
		<circle class="st1" cx="119.3" cy="106.6" r="0.9"/>
		<circle class="st1" cx="98.3" cy="108.3" r="0.9"/>
		<circle class="st1" cx="116.4" cy="108.4" r="0.9"/>
		<circle class="st1" cx="112.3" cy="107.6" r="0.9"/>
		<circle class="st1" cx="106.1" cy="108.3" r="0.9"/>
		<circle class="st1" cx="126.9" cy="107.6" r="0.9"/>
	</g>
	<path class="st1" d="M120,140.6H92c-5.5,0-10-24.5-10-30h48C130,116.1,125.5,140.6,120,140.6z"/>
	<g>
		<rect x="83" y="103.6" class="st1" width="2" height="7"/>
		<g>
			<rect x="83" y="101.4" class="st1" width="5.6" height="2.1"/>
			<polygon class="st1" points="88.6,101.4 92.7,102.9 92.7,104.3 88.6,103.6 			"/>
			<path class="st1" d="M92.7,108.7c-0.6,0-1-0.5-1-1.1c0-0.9,1-1.8,1-1.8s1,0.8,1,1.8C93.7,108.2,93.3,108.7,92.7,108.7z"/>
		</g>
	</g>
</g>
<g>
	<g>
		<g>
			<rect x="175.2" y="-60.8" class="st1" width="8.8" height="4"/>
			<path class="st1" d="M183.3-55.3c3.7,0,6,2.4,6,5.3v31h-19.4v-31c0-2.9,2.4-5.3,6-5.3v-1.4h7.4V-55.3z"/>
			<line class="st1" x1="169.9" y1="-45" x2="189.3" y2="-45"/>
			<g>
				<rect x="174.8" y="-67" class="st1" width="9.7" height="2.1"/>
				<polygon class="st1" points="184.5,-67 188.7,-65.6 188.7,-64.1 184.5,-64.9 				"/>
				<rect x="178.1" y="-64.9" class="st1" width="1.6" height="4"/>
				<path class="st1" d="M188.7-58.1c-0.8,0-1.4-0.7-1.4-1.5c0-1.3,1.4-2.5,1.4-2.5s1.4,1.2,1.4,2.5
					C190.1-58.8,189.5-58.1,188.7-58.1z"/>
			</g>
		</g>
	</g>
	<g>
		<path class="st1" d="M179.6-38.4c-0.9-0.4-2,0.1-2.3,1c-0.4,0.9,0.1,2,1,2.3c-0.4,0.9,0.1,2,1,2.3c0.9,0.4,2-0.1,2.3-1
			c0.9,0.4,2-0.1,2.3-1c0.4-0.9-0.1-2-1-2.3c0.4-0.9-0.1-2-1-2.3C181-39.8,180-39.3,179.6-38.4z M181.8-35.6c-0.3,0.7-1,1-1.7,0.7
			c-0.7-0.3-1-1-0.7-1.7c0.3-0.7,1-1,1.7-0.7C181.8-37,182.1-36.3,181.8-35.6z"/>
		<path class="st1" d="M182.9-30.5c-0.9-0.4-2,0.1-2.3,1c-0.4,0.9,0.1,2,1,2.3c-0.4,0.9,0.1,2,1,2.3c0.9,0.4,2-0.1,2.3-1
			c0.9,0.4,2-0.1,2.3-1c0.4-0.9-0.1-2-1-2.3c0.4-0.9-0.1-2-1-2.3C184.3-31.9,183.2-31.5,182.9-30.5z M185.1-27.8
			c-0.3,0.7-1,1-1.7,0.7c-0.7-0.3-1-1-0.7-1.7c0.3-0.7,1-1,1.7-0.7C185-29.1,185.4-28.4,185.1-27.8z"/>
	</g>
	<rect x="175.2" y="-41.3" class="st1" width="14.1" height="18.4"/>
</g>
<g>
	<circle class="st0" cx="180" cy="35.7" r="32"/>
</g>
<g>
	<g>
		<g>
			<rect x="175.2" y="17.8" class="st1" width="8.8" height="4"/>
			<path class="st1" d="M183.3,23.3c3.7,0,6,2.4,6,5.3v31h-19.4v-31c0-2.9,2.4-5.3,6-5.3v-1.4h7.4V23.3z"/>
			<line class="st1" x1="169.9" y1="33.7" x2="189.3" y2="33.7"/>
			<g>
				<rect x="174.8" y="11.7" class="st1" width="9.7" height="2.1"/>
				<polygon class="st1" points="184.5,11.7 188.7,13.1 188.7,14.5 184.5,13.8 				"/>
				<rect x="178.1" y="13.8" class="st1" width="1.6" height="4"/>
				<path class="st1" d="M188.7,20.6c-0.8,0-1.4-0.7-1.4-1.5c0-1.3,1.4-2.5,1.4-2.5s1.4,1.2,1.4,2.5
					C190.1,19.9,189.5,20.6,188.7,20.6z"/>
			</g>
		</g>
	</g>
	<g>
		<path class="st1" d="M179.6,40.3c-0.9-0.4-2,0.1-2.3,1c-0.4,0.9,0.1,2,1,2.3c-0.4,0.9,0.1,2,1,2.3c0.9,0.4,2-0.1,2.3-1
			c0.9,0.4,2-0.1,2.3-1c0.4-0.9-0.1-2-1-2.3c0.4-0.9-0.1-2-1-2.3C181,38.9,180,39.3,179.6,40.3z M181.8,43c-0.3,0.7-1,1-1.7,0.7
			c-0.7-0.3-1-1-0.7-1.7c0.3-0.7,1-1,1.7-0.7C181.8,41.7,182.1,42.4,181.8,43z"/>
		<path class="st1" d="M182.9,48.1c-0.9-0.4-2,0.1-2.3,1c-0.4,0.9,0.1,2,1,2.3c-0.4,0.9,0.1,2,1,2.3c0.9,0.4,2-0.1,2.3-1
			c0.9,0.4,2-0.1,2.3-1c0.4-0.9-0.1-2-1-2.3c0.4-0.9-0.1-2-1-2.3C184.3,46.7,183.2,47.2,182.9,48.1z M185.1,50.9
			c-0.3,0.7-1,1-1.7,0.7c-0.7-0.3-1-1-0.7-1.7c0.3-0.7,1-1,1.7-0.7C185,49.5,185.4,50.3,185.1,50.9z"/>
	</g>
	<rect x="175.2" y="37.3" class="st1" width="14.1" height="18.4"/>
</g>
<g>
	<path id="XMLID_263_" class="st3" d="M38.9,36.6c0.6,0.4,1.1,1,1.4,1.5c0,0,0,0.1,0,0.1h1.6c0.6,0,1.2,0.3,1.6,0.7
		c0.4,0.4,0.7,1,0.7,1.6v2.3h-0.9v-2.3c0-0.4-0.2-0.8-0.4-1c-0.3-0.3-0.6-0.4-1-0.4h-1.3c0.1,0.2,0.1,0.5,0.1,0.7l0,4.2
		c0,0.3,0.2,0.5,0.5,0.5c0.5,0,0.9,0,1.4,0c0,2.3,0,4.6,0,6.9v1.7v0.4h-4.8v-1.3c0-0.7,0.6-1.3,1.3-1.3h0.7v-3.7h-1.2
		c-1,0-1.9-0.4-2.5-1.1c-0.6-0.6-1.1-1.5-1.1-2.5v-1.3h-3.3c-0.4,0.6-1,1.1-1.7,1.4c-0.7,0.4-1.5,0.6-2.4,0.6h-2.1
		c-0.1,0.3-0.2,0.5-0.4,0.7c-0.2,0.2-0.5,0.4-0.7,0.6v5.7v2.2h-4.8v-1.3c0-0.7,0.6-1.3,1.3-1.3h0.7V44l-1.1-9.3h-4.5
		c-0.3,0-0.5-0.1-0.6-0.3l0,0c-0.2-0.2-0.3-0.4-0.3-0.7v-0.6c0-0.2,0.1-0.4,0.3-0.6c0.1-0.1,0.3-0.2,0.6-0.3l1.8-0.5
		c0.1-0.4,0.2-0.8,0.5-1c0.3-0.4,0.7-0.6,1.2-0.6H20l0,0h1.6v-2.3l0.8-0.2l3.7,8.3h5.6v0.9l-6.2,0l-3.1-6.9V31h-2v0h-1
		c-0.2,0-0.4,0.1-0.6,0.3c-0.2,0.2-0.3,0.5-0.3,0.8v0.3l-2.4,0.7c-0.1,0-0.1,0-0.2,0.1v0.6c0,0,0,0,0,0v0c0,0,0,0,0,0h5.3l1.2,10
		c0,2.6,0,5.3,0,7.9c-0.5,0-1.1,0-1.6,0c-0.2,0-0.4,0.2-0.4,0.4v0.4h3v-1.3l0-6.4l0.3,0c0.2-0.1,0.5-0.2,0.6-0.4
		c0.1-0.2,0.2-0.4,0.2-0.7v-5.1h0.9v4.7h2.1c0.7,0,1.4-0.2,2-0.5c0.6-0.3,1.2-0.8,1.5-1.4l0.1-0.2c1.5,0,3.2,0,4.7,0
		c0,0.7,0,1.4,0,2.2c0,0.7,0.3,1.4,0.8,1.9c0.5,0.5,1.2,0.8,1.9,0.8h2c0,1.8,0,3.6,0,5.4c-0.5,0-1.1,0-1.6,0c-0.2,0-0.4,0.2-0.4,0.4
		v0.4h3v-1.3v-6h-0.5c-0.7,0-1.4-0.6-1.4-1.4v-4.1l0-0.1c0-0.4-0.1-0.8-0.3-1.3c-0.2-0.5-0.6-0.9-1.1-1.2L38.9,36.6L38.9,36.6z
		 M36.4,37.5c-0.1,0.1,0,0.2,0.1,0.3c0.1,0.1,0.2,0,0.3-0.1l1.3-2l-0.3-0.2l0,0L36.4,37.5L36.4,37.5z M38.7,36.1
		c0.2,0.1,0.5,0.1,0.7,0.1c0.3-0.1,0.5-0.2,0.7-0.5l0.7-1.1l5.9,3.8c0.6,0.4,1.2,0.4,1.6,0.2c0.2-0.1,0.3-0.2,0.4-0.4
		c0.1-0.2,0.2-0.3,0.2-0.5c0-0.4-0.2-0.9-0.8-1.3l-5.9-3.8l-1.5-0.9l-6.8-4.4c-0.3-0.2-0.6-0.2-0.9-0.2c-0.3,0.1-0.5,0.2-0.7,0.5
		l0,0l-1.4,2.2c-0.2,0.3-0.2,0.6-0.2,0.9c0,0.2,0.2,0.4,0.4,0.6l-1.3,2c-0.1,0.2-0.2,0.5-0.1,0.7c0.1,0.2,0.2,0.5,0.4,0.6
		c0.2,0.1,0.4,0.2,0.6,0.2c0.1,0.2,0.2,0.4,0.4,0.5c0.2,0.1,0.4,0.2,0.6,0.2c0.1,0.2,0.2,0.4,0.4,0.5c0.2,0.1,0.4,0.2,0.6,0.2
		c0.1,0.2,0.2,0.4,0.4,0.5c0.2,0.1,0.4,0.2,0.6,0.2c0.1,0.2,0.2,0.4,0.4,0.5c0.2,0.1,0.4,0.2,0.6,0.2c0.1,0.2,0.2,0.4,0.4,0.5
		c0.2,0.1,0.4,0.2,0.6,0.2c0.1,0.2,0.2,0.4,0.4,0.5c0.2,0.1,0.5,0.2,0.7,0.1l0,0c0.3-0.1,0.5-0.2,0.6-0.4L38.7,36.1L38.7,36.1z
		 M35.7,37.1l1.3-2l-0.3-0.2l-1.3,2l0,0c-0.1,0.1,0,0.2,0.1,0.3C35.5,37.2,35.6,37.1,35.7,37.1L35.7,37.1z M37,34.1l0.4,0.3l0,0
		l0.7,0.4l0,0l0.8,0.5c0.1,0,0.2,0.1,0.2,0c0.1,0,0.2-0.1,0.2-0.1l1.6-2.4l-0.8-0.5l-6.8-4.4c-0.1,0-0.2-0.1-0.2,0
		c-0.1,0-0.2,0.1-0.2,0.1l0,0l-1.4,2.2c0,0.1-0.1,0.2,0,0.2c0,0.1,0.1,0.1,0.1,0.2l0.9,0.6l0.1,0.1l0.4,0.3l0.4,0.3l0,0l0.7,0.4l0,0
		l0.3,0.2l0.1,0.1l0.4,0.3l0.4,0.3l0,0l0.7,0.4l0,0l0.3,0.2l0.1,0.1L37,34.1L37,34.1z M34.7,36.4l1.3-2l-0.3-0.2l-1.3,2
		c-0.1,0.1,0,0.2,0.1,0.3C34.5,36.5,34.6,36.5,34.7,36.4L34.7,36.4z M33.7,35.8L33.7,35.8l1.3-2l-0.3-0.2l-1.3,2l0,0
		c0,0,0,0.1,0,0.1c0,0,0,0.1,0.1,0.1c0,0,0.1,0,0.1,0C33.6,35.8,33.7,35.8,33.7,35.8L33.7,35.8z M32.7,35.1l1.3-2l-0.3-0.2l0,0
		l-1.3,2c0,0,0,0.1,0,0.1c0,0,0,0.1,0.1,0.1c0,0,0.1,0,0.1,0l0,0C32.7,35.2,32.7,35.2,32.7,35.1L32.7,35.1z M31.7,34.5L31.7,34.5
		l1.3-2l-0.3-0.2l-1.3,2l0,0c0,0,0,0.1,0,0.1c0,0,0,0.1,0.1,0.1c0,0,0.1,0,0.1,0C31.7,34.6,31.7,34.6,31.7,34.5L31.7,34.5z
		 M30.8,33.9l1.3-2l-0.3-0.2l0,0l-1.3,2c-0.1,0.1,0,0.2,0.1,0.3C30.6,34,30.7,34,30.8,33.9L30.8,33.9z M41.2,33.9l5.9,3.8
		c0.3,0.2,0.6,0.3,0.8,0.2c0,0,0.1,0,0.1-0.1c0,0,0-0.1,0-0.1c0-0.2-0.1-0.4-0.5-0.6l-5.9-3.8L41.2,33.9L41.2,33.9z M19.8,31.6v0.9
		H21v-0.9H19.8z"/>
	<g>
		<path class="st1" d="M46,55.5H18c-5.5,0-10-24.5-10-30h48C56,31,51.5,55.5,46,55.5z"/>
		<path class="st1" d="M9,20.5h46c0.6,0,1,0.4,1,1v4H8v-4C8,20.9,8.4,20.5,9,20.5z"/>
	</g>
</g>
<g>
	<circle class="st0" cx="32" cy="118.7" r="32"/>
</g>
<g>
	<path id="XMLID_1_" class="st3" d="M38.9,123.3c0.6,0.4,1.1,1,1.4,1.5c0,0,0,0.1,0,0.1h1.6c0.6,0,1.2,0.3,1.6,0.7
		c0.4,0.4,0.7,1,0.7,1.6v2.3h-0.9v-2.3c0-0.4-0.2-0.8-0.4-1c-0.3-0.3-0.6-0.4-1-0.4h-1.3c0.1,0.2,0.1,0.5,0.1,0.7l0,4.2
		c0,0.3,0.2,0.5,0.5,0.5c0.5,0,0.9,0,1.4,0c0,2.3,0,4.6,0,6.9v1.7v0.4h-4.8v-1.3c0-0.7,0.6-1.3,1.3-1.3h0.7v-3.7h-1.2
		c-1,0-1.9-0.4-2.5-1.1c-0.6-0.6-1.1-1.5-1.1-2.5V129h-3.3c-0.4,0.6-1,1.1-1.7,1.4c-0.7,0.4-1.5,0.6-2.4,0.6h-2.1
		c-0.1,0.3-0.2,0.5-0.4,0.7c-0.2,0.2-0.5,0.4-0.7,0.6v5.7v2.2h-4.8v-1.3c0-0.7,0.6-1.3,1.3-1.3h0.7v-6.9l-1.1-9.3h-4.5
		c-0.3,0-0.5-0.1-0.6-0.3l0,0c-0.2-0.2-0.3-0.4-0.3-0.7v-0.6c0-0.2,0.1-0.4,0.3-0.6c0.1-0.1,0.3-0.2,0.6-0.3l1.8-0.5
		c0.1-0.4,0.2-0.8,0.5-1c0.3-0.4,0.7-0.6,1.2-0.6H20l0,0h1.6v-2.3l0.8-0.2l3.7,8.3h5.6v0.9l-6.2,0l-3.1-6.9v1.2h-2v0h-1
		c-0.2,0-0.4,0.1-0.6,0.3c-0.2,0.2-0.3,0.5-0.3,0.8v0.3l-2.4,0.7c-0.1,0-0.1,0-0.2,0.1v0.6c0,0,0,0,0,0v0c0,0,0,0,0,0h5.3l1.2,10
		c0,2.6,0,5.3,0,7.9c-0.5,0-1.1,0-1.6,0c-0.2,0-0.4,0.2-0.4,0.4v0.4h3V138l0-6.4l0.3,0c0.2-0.1,0.5-0.2,0.6-0.4
		c0.1-0.2,0.2-0.4,0.2-0.7v-5.1h0.9v4.7h2.1c0.7,0,1.4-0.2,2-0.5c0.6-0.3,1.2-0.8,1.5-1.4l0.1-0.2c1.5,0,3.2,0,4.7,0
		c0,0.7,0,1.4,0,2.2c0,0.7,0.3,1.4,0.8,1.9c0.5,0.5,1.2,0.8,1.9,0.8h2c0,1.8,0,3.6,0,5.4c-0.5,0-1.1,0-1.6,0c-0.2,0-0.4,0.2-0.4,0.4
		v0.4h3V138v-6h-0.5c-0.7,0-1.4-0.6-1.4-1.4v-4.1l0-0.1c0-0.4-0.1-0.8-0.3-1.3c-0.2-0.5-0.6-0.9-1.1-1.2L38.9,123.3L38.9,123.3z
		 M36.4,124.2c-0.1,0.1,0,0.2,0.1,0.3c0.1,0.1,0.2,0,0.3-0.1l1.3-2l-0.3-0.2l0,0L36.4,124.2L36.4,124.2z M38.7,122.8
		c0.2,0.1,0.5,0.1,0.7,0.1c0.3-0.1,0.5-0.2,0.7-0.5l0.7-1.1l5.9,3.8c0.6,0.4,1.2,0.4,1.6,0.2c0.2-0.1,0.3-0.2,0.4-0.4
		c0.1-0.2,0.2-0.3,0.2-0.5c0-0.4-0.2-0.9-0.8-1.3l-5.9-3.8l-1.5-0.9l-6.8-4.4c-0.3-0.2-0.6-0.2-0.9-0.2c-0.3,0.1-0.5,0.2-0.7,0.5
		l0,0l-1.4,2.2c-0.2,0.3-0.2,0.6-0.2,0.9c0,0.2,0.2,0.4,0.4,0.6l-1.3,2c-0.1,0.2-0.2,0.5-0.1,0.7c0.1,0.2,0.2,0.5,0.4,0.6
		c0.2,0.1,0.4,0.2,0.6,0.2c0.1,0.2,0.2,0.4,0.4,0.5c0.2,0.1,0.4,0.2,0.6,0.2c0.1,0.2,0.2,0.4,0.4,0.5c0.2,0.1,0.4,0.2,0.6,0.2
		c0.1,0.2,0.2,0.4,0.4,0.5c0.2,0.1,0.4,0.2,0.6,0.2c0.1,0.2,0.2,0.4,0.4,0.5c0.2,0.1,0.4,0.2,0.6,0.2c0.1,0.2,0.2,0.4,0.4,0.5
		c0.2,0.1,0.4,0.2,0.6,0.2c0.1,0.2,0.2,0.4,0.4,0.5c0.2,0.1,0.5,0.2,0.7,0.1l0,0c0.3-0.1,0.5-0.2,0.6-0.4L38.7,122.8L38.7,122.8z
		 M35.7,123.7l1.3-2l-0.3-0.2l-1.3,2l0,0c-0.1,0.1,0,0.2,0.1,0.3C35.5,123.8,35.6,123.8,35.7,123.7L35.7,123.7z M37,120.7l0.4,0.3
		l0,0l0.7,0.4l0,0l0.8,0.5c0.1,0,0.2,0.1,0.2,0c0.1,0,0.2-0.1,0.2-0.1l1.6-2.4l-0.8-0.5l-6.8-4.4c-0.1,0-0.2-0.1-0.2,0
		c-0.1,0-0.2,0.1-0.2,0.1l0,0l-1.4,2.2c0,0.1-0.1,0.2,0,0.2c0,0.1,0.1,0.1,0.1,0.2l0.9,0.6l0.1,0.1l0.4,0.3l0.4,0.3l0,0l0.7,0.4l0,0
		l0.3,0.2l0.1,0.1l0.4,0.3l0.4,0.3l0,0l0.7,0.4l0,0l0.3,0.2l0.1,0.1L37,120.7L37,120.7z M34.7,123.1l1.3-2l-0.3-0.2l-1.3,2
		c-0.1,0.1,0,0.2,0.1,0.3C34.5,123.2,34.6,123.2,34.7,123.1L34.7,123.1z M33.7,122.5L33.7,122.5l1.3-2l-0.3-0.2l-1.3,2l0,0
		c0,0,0,0.1,0,0.1c0,0,0,0.1,0.1,0.1c0,0,0.1,0,0.1,0C33.6,122.5,33.7,122.5,33.7,122.5L33.7,122.5z M32.7,121.8l1.3-2l-0.3-0.2l0,0
		l-1.3,2c0,0,0,0.1,0,0.1c0,0,0,0.1,0.1,0.1c0,0,0.1,0,0.1,0l0,0C32.7,121.9,32.7,121.9,32.7,121.8L32.7,121.8z M31.7,121.2
		L31.7,121.2l1.3-2l-0.3-0.2l-1.3,2l0,0c0,0,0,0.1,0,0.1c0,0,0,0.1,0.1,0.1c0,0,0.1,0,0.1,0C31.7,121.2,31.7,121.2,31.7,121.2
		L31.7,121.2z M30.8,120.5l1.3-2l-0.3-0.2l0,0l-1.3,2c-0.1,0.1,0,0.2,0.1,0.3C30.6,120.6,30.7,120.6,30.8,120.5L30.8,120.5z
		 M41.2,120.5l5.9,3.8c0.3,0.2,0.6,0.3,0.8,0.2c0,0,0.1,0,0.1-0.1c0,0,0-0.1,0-0.1c0-0.2-0.1-0.4-0.5-0.6l-5.9-3.8L41.2,120.5
		L41.2,120.5z M19.8,118.3v0.9H21v-0.9H19.8z"/>
	<g>
		<path class="st1" d="M46,142.2H18c-5.5,0-10-24.5-10-30h48C56,117.7,51.5,142.2,46,142.2z"/>
		<path class="st1" d="M9,107.2h46c0.6,0,1,0.4,1,1v4H8v-4C8,107.6,8.4,107.2,9,107.2z"/>
	</g>
</g>
<g>
	<path class="st2" d="M92.7,43.7l12.6-9.6c3.1-2.4,4.3-4,4.3-6c0-2.1-1.5-3.4-3.7-3.4s-4,1.3-6.7,4.3l-6.3-5.2
		c3.6-4.7,7.2-7.2,13.7-7.2c7.3,0,12.4,4.4,12.4,10.7v0.1c0,5.4-2.8,8.2-7.8,11.8l-5.8,4h13.9v7.6H92.7V43.7z"/>
</g>
<text transform="matrix(1 0 0 1 146.2009 53.3526)" style="font-family:'Gotham-Black'; font-size:48px;">2</text>
</svg>
